G04 EAGLE Gerber RS-274X export*
G75*
%MOMM*%
%FSLAX34Y34*%
%LPD*%
%INTop Copper*%
%IPPOS*%
%AMOC8*
5,1,8,0,0,1.08239X$1,22.5*%
G01*
%ADD10C,1.000000*%
%ADD11C,0.609600*%

G36*
X150158Y-485D02*
X150158Y-485D01*
X150227Y-480D01*
X150255Y-466D01*
X150285Y-460D01*
X150342Y-420D01*
X150404Y-388D01*
X150423Y-364D01*
X150449Y-347D01*
X150486Y-288D01*
X150530Y-235D01*
X150539Y-205D01*
X150556Y-180D01*
X150567Y-111D01*
X150587Y-44D01*
X150584Y-14D01*
X150589Y17D01*
X150573Y84D01*
X150565Y154D01*
X150550Y180D01*
X150543Y210D01*
X150501Y266D01*
X150467Y327D01*
X150440Y349D01*
X150425Y370D01*
X150389Y391D01*
X150339Y433D01*
X122749Y16322D01*
X122723Y16331D01*
X122700Y16347D01*
X122629Y16362D01*
X122561Y16385D01*
X122533Y16383D01*
X122505Y16389D01*
X122434Y16375D01*
X122362Y16369D01*
X122337Y16356D01*
X122310Y16351D01*
X122250Y16311D01*
X122186Y16277D01*
X122168Y16256D01*
X122145Y16240D01*
X122086Y16156D01*
X122059Y16124D01*
X122056Y16114D01*
X122049Y16104D01*
X121756Y15488D01*
X96902Y29837D01*
X96887Y29834D01*
X96887Y29833D01*
X96886Y29833D01*
X96420Y29025D01*
X96130Y28802D01*
X96130Y28799D01*
X96128Y28799D01*
X95861Y28415D01*
X95861Y28413D01*
X95860Y28412D01*
X95591Y27734D01*
X94893Y27017D01*
X94893Y27015D01*
X94892Y27015D01*
X94323Y26192D01*
X93709Y25797D01*
X93709Y25795D01*
X93707Y25795D01*
X93128Y25199D01*
X93128Y25197D01*
X93126Y25197D01*
X92748Y24572D01*
X91943Y23979D01*
X91942Y23978D01*
X91941Y23978D01*
X91244Y23260D01*
X90574Y22971D01*
X90573Y22970D01*
X90572Y22970D01*
X89902Y22477D01*
X89902Y22475D01*
X89900Y22475D01*
X89425Y21921D01*
X88532Y21469D01*
X88532Y21468D01*
X88531Y21468D01*
X87725Y20875D01*
X87017Y20700D01*
X87015Y20699D01*
X87014Y20699D01*
X86272Y20323D01*
X86272Y20322D01*
X86270Y20322D01*
X85710Y19854D01*
X84756Y19554D01*
X84755Y19553D01*
X84754Y19554D01*
X83861Y19101D01*
X83134Y19046D01*
X83133Y19044D01*
X83131Y19045D01*
X82338Y18796D01*
X82337Y18795D01*
X82335Y18795D01*
X81706Y18425D01*
X80715Y18287D01*
X80714Y18286D01*
X80713Y18287D01*
X79759Y17988D01*
X79032Y18053D01*
X79031Y18052D01*
X79029Y18052D01*
X78205Y17938D01*
X78204Y17936D01*
X78203Y17937D01*
X77521Y17676D01*
X77291Y17682D01*
X77290Y17682D01*
X76847Y17694D01*
X76846Y17694D01*
X76521Y17703D01*
X76520Y17702D01*
X76519Y17703D01*
X75528Y17565D01*
X74822Y17748D01*
X74820Y17747D01*
X74819Y17749D01*
X74628Y17754D01*
X74184Y17766D01*
X74183Y17766D01*
X73988Y17771D01*
X73987Y17770D01*
X73985Y17771D01*
X73270Y17625D01*
X72288Y17817D01*
X72287Y17816D01*
X72286Y17817D01*
X71965Y17825D01*
X71964Y17825D01*
X71522Y17837D01*
X71521Y17837D01*
X71286Y17844D01*
X70620Y18141D01*
X70618Y18140D01*
X70617Y18142D01*
X69801Y18301D01*
X69799Y18300D01*
X69798Y18301D01*
X69514Y18291D01*
X69175Y18279D01*
X69174Y18279D01*
X69069Y18275D01*
X68132Y18625D01*
X68130Y18625D01*
X68130Y18626D01*
X67148Y18817D01*
X66539Y19220D01*
X66537Y19220D01*
X66537Y19221D01*
X65758Y19512D01*
X65756Y19512D01*
X65755Y19513D01*
X65032Y19608D01*
X64165Y20107D01*
X64164Y20107D01*
X64163Y20108D01*
X63226Y20458D01*
X62692Y20956D01*
X62690Y20956D01*
X62690Y20958D01*
X61970Y21373D01*
X61968Y21373D01*
X61967Y21374D01*
X61269Y21587D01*
X60496Y22222D01*
X60495Y22222D01*
X60495Y22223D01*
X59628Y22723D01*
X59183Y23302D01*
X59181Y23302D01*
X59181Y23304D01*
X58539Y23832D01*
X58537Y23832D01*
X58537Y23833D01*
X57883Y24158D01*
X57226Y24912D01*
X57224Y24912D01*
X57224Y24913D01*
X56452Y25549D01*
X56108Y26193D01*
X56107Y26193D01*
X56107Y26195D01*
X55560Y26822D01*
X55558Y26822D01*
X55558Y26823D01*
X54967Y27251D01*
X54442Y28103D01*
X54441Y28104D01*
X54441Y28105D01*
X53784Y28859D01*
X53551Y29550D01*
X53550Y29551D01*
X53550Y29553D01*
X53114Y30261D01*
X53112Y30262D01*
X53112Y30263D01*
X52599Y30782D01*
X52222Y31709D01*
X52221Y31710D01*
X52222Y31711D01*
X51697Y32563D01*
X51581Y33283D01*
X51580Y33285D01*
X51581Y33286D01*
X51267Y34056D01*
X51266Y34057D01*
X51266Y34058D01*
X50846Y34655D01*
X50626Y35631D01*
X50625Y35632D01*
X50626Y35633D01*
X50249Y36560D01*
X50253Y37289D01*
X50252Y37291D01*
X50253Y37292D01*
X50070Y38103D01*
X50069Y38105D01*
X50070Y38106D01*
X49753Y38764D01*
X49697Y39763D01*
X49696Y39764D01*
X49697Y39765D01*
X49478Y40740D01*
X49602Y41460D01*
X49601Y41461D01*
X49602Y41462D01*
X49556Y42293D01*
X49555Y42294D01*
X49556Y42295D01*
X49352Y42996D01*
X49352Y43000D01*
X49353Y43012D01*
X49354Y43012D01*
X49392Y43358D01*
X49393Y43370D01*
X49394Y43382D01*
X49396Y43394D01*
X49397Y43406D01*
X49435Y43752D01*
X49436Y43764D01*
X49438Y43776D01*
X49439Y43788D01*
X49440Y43800D01*
X49461Y43990D01*
X49461Y43991D01*
X49460Y43992D01*
X49461Y43992D01*
X49405Y44991D01*
X49647Y45680D01*
X49646Y45682D01*
X49647Y45683D01*
X49649Y45698D01*
X49650Y45710D01*
X49652Y45722D01*
X49653Y45734D01*
X49687Y46044D01*
X49688Y46056D01*
X49690Y46068D01*
X49691Y46080D01*
X49692Y46092D01*
X49726Y46402D01*
X49727Y46402D01*
X49726Y46402D01*
X49728Y46414D01*
X49729Y46426D01*
X49730Y46438D01*
X49732Y46450D01*
X49738Y46509D01*
X49738Y46510D01*
X49737Y46511D01*
X49738Y46512D01*
X49652Y47237D01*
X49924Y48200D01*
X49923Y48201D01*
X49924Y48201D01*
X49960Y48527D01*
X49962Y48539D01*
X49963Y48551D01*
X49964Y48563D01*
X49965Y48575D01*
X49966Y48575D01*
X49967Y48587D01*
X49968Y48599D01*
X50013Y49005D01*
X50014Y49017D01*
X50015Y49028D01*
X50015Y49029D01*
X50017Y49040D01*
X50018Y49052D01*
X50019Y49064D01*
X50034Y49196D01*
X50385Y49836D01*
X50385Y49837D01*
X50386Y49838D01*
X50612Y50638D01*
X50611Y50639D01*
X50612Y50640D01*
X50612Y50641D01*
X50647Y51370D01*
X51073Y52275D01*
X51073Y52276D01*
X51074Y52277D01*
X51346Y53240D01*
X51798Y53813D01*
X51797Y53815D01*
X51799Y53815D01*
X51998Y54238D01*
X51998Y54241D01*
X51999Y54242D01*
X52029Y54472D01*
X52030Y54472D01*
X52029Y54472D01*
X52031Y54484D01*
X52033Y54496D01*
X52034Y54508D01*
X52036Y54520D01*
X52037Y54532D01*
X52039Y54544D01*
X52040Y54556D01*
X52042Y54567D01*
X52042Y54568D01*
X52044Y54579D01*
X52045Y54591D01*
X52047Y54605D01*
X52530Y55443D01*
X52527Y55458D01*
X52526Y55458D01*
X52525Y55459D01*
X16585Y76210D01*
X16980Y76780D01*
X16991Y76807D01*
X17009Y76829D01*
X17030Y76897D01*
X17058Y76963D01*
X17058Y76992D01*
X17066Y77019D01*
X17059Y77090D01*
X17059Y77162D01*
X17048Y77188D01*
X17045Y77217D01*
X17010Y77279D01*
X16982Y77345D01*
X16961Y77365D01*
X16947Y77390D01*
X16870Y77455D01*
X16840Y77484D01*
X16830Y77488D01*
X16819Y77496D01*
X342Y87036D01*
X268Y87061D01*
X197Y87092D01*
X175Y87092D01*
X154Y87099D01*
X76Y87093D01*
X-2Y87094D01*
X-25Y87085D01*
X-45Y87084D01*
X-84Y87063D01*
X-158Y87036D01*
X-16612Y77536D01*
X-16633Y77517D01*
X-16659Y77505D01*
X-16707Y77452D01*
X-16761Y77404D01*
X-16773Y77379D01*
X-16792Y77358D01*
X-16816Y77290D01*
X-16847Y77225D01*
X-16848Y77197D01*
X-16857Y77170D01*
X-16853Y77098D01*
X-16856Y77026D01*
X-16846Y77000D01*
X-16844Y76971D01*
X-16801Y76879D01*
X-16786Y76840D01*
X-16779Y76832D01*
X-16774Y76821D01*
X-16367Y76230D01*
X-52323Y55470D01*
X-52328Y55456D01*
X-52327Y55455D01*
X-52327Y55454D01*
X-51853Y54632D01*
X-51805Y54269D01*
X-51803Y54267D01*
X-51804Y54265D01*
X-51603Y53839D01*
X-51601Y53839D01*
X-51601Y53837D01*
X-51149Y53264D01*
X-50877Y52301D01*
X-50876Y52301D01*
X-50876Y52300D01*
X-50449Y51395D01*
X-50414Y50666D01*
X-50413Y50665D01*
X-50414Y50663D01*
X-50186Y49860D01*
X-50185Y49859D01*
X-50185Y49858D01*
X-49834Y49218D01*
X-49724Y48224D01*
X-49723Y48223D01*
X-49723Y48222D01*
X-49451Y47259D01*
X-49536Y46534D01*
X-49535Y46533D01*
X-49536Y46532D01*
X-49444Y45702D01*
X-49443Y45701D01*
X-49444Y45699D01*
X-49202Y45011D01*
X-49257Y44012D01*
X-49256Y44011D01*
X-49257Y44010D01*
X-49147Y43015D01*
X-49351Y42315D01*
X-49350Y42313D01*
X-49351Y42312D01*
X-49397Y41478D01*
X-49396Y41477D01*
X-49397Y41476D01*
X-49272Y40757D01*
X-49491Y39781D01*
X-49490Y39780D01*
X-49491Y39780D01*
X-49490Y39779D01*
X-49491Y39779D01*
X-49546Y38780D01*
X-49862Y38122D01*
X-49862Y38121D01*
X-49862Y38120D01*
X-49861Y38120D01*
X-49863Y38119D01*
X-50045Y37305D01*
X-50044Y37303D01*
X-50046Y37302D01*
X-50041Y36572D01*
X-50417Y35645D01*
X-50417Y35644D01*
X-50418Y35643D01*
X-50636Y34667D01*
X-51056Y34070D01*
X-51056Y34069D01*
X-51058Y34068D01*
X-51372Y33295D01*
X-51371Y33293D01*
X-51373Y33292D01*
X-51488Y32571D01*
X-52012Y31719D01*
X-52011Y31718D01*
X-52012Y31717D01*
X-52389Y30790D01*
X-52902Y30271D01*
X-52902Y30269D01*
X-52903Y30269D01*
X-53340Y29558D01*
X-53340Y29556D01*
X-53341Y29555D01*
X-53574Y28863D01*
X-54231Y28109D01*
X-54231Y28107D01*
X-54232Y28107D01*
X-54756Y27255D01*
X-55347Y26827D01*
X-55347Y26825D01*
X-55349Y26825D01*
X-55897Y26195D01*
X-55897Y26194D01*
X-55898Y26193D01*
X-56241Y25549D01*
X-57014Y24913D01*
X-57014Y24912D01*
X-57015Y24912D01*
X-57672Y24157D01*
X-58326Y23832D01*
X-58326Y23830D01*
X-58328Y23831D01*
X-58972Y23300D01*
X-58972Y23298D01*
X-58974Y23298D01*
X-59418Y22719D01*
X-60285Y22219D01*
X-60285Y22218D01*
X-60286Y22218D01*
X-61058Y21582D01*
X-61757Y21369D01*
X-61758Y21367D01*
X-61759Y21368D01*
X-62482Y20950D01*
X-62483Y20948D01*
X-62484Y20949D01*
X-63018Y20451D01*
X-63955Y20100D01*
X-63955Y20099D01*
X-63956Y20099D01*
X-64823Y19599D01*
X-65546Y19504D01*
X-65548Y19502D01*
X-65549Y19503D01*
X-66331Y19210D01*
X-66331Y19209D01*
X-66333Y19209D01*
X-66941Y18806D01*
X-67923Y18614D01*
X-67924Y18613D01*
X-67925Y18613D01*
X-68862Y18263D01*
X-68994Y18267D01*
X-68995Y18267D01*
X-69341Y18279D01*
X-69591Y18288D01*
X-69593Y18286D01*
X-69594Y18287D01*
X-70413Y18127D01*
X-70414Y18126D01*
X-70416Y18127D01*
X-71082Y17829D01*
X-71206Y17825D01*
X-71207Y17825D01*
X-71639Y17813D01*
X-71640Y17813D01*
X-72072Y17802D01*
X-72073Y17802D01*
X-72073Y17801D01*
X-72082Y17801D01*
X-72083Y17800D01*
X-72084Y17801D01*
X-73066Y17609D01*
X-73781Y17754D01*
X-73782Y17754D01*
X-73784Y17754D01*
X-73803Y17754D01*
X-73804Y17754D01*
X-74236Y17742D01*
X-74237Y17742D01*
X-74618Y17731D01*
X-74620Y17730D01*
X-74621Y17731D01*
X-75327Y17547D01*
X-76318Y17684D01*
X-76319Y17684D01*
X-76320Y17684D01*
X-76402Y17682D01*
X-76403Y17682D01*
X-76834Y17670D01*
X-76835Y17670D01*
X-77267Y17658D01*
X-77268Y17658D01*
X-77320Y17657D01*
X-78002Y17917D01*
X-78004Y17917D01*
X-78005Y17918D01*
X-78831Y18033D01*
X-78833Y18032D01*
X-78834Y18033D01*
X-79561Y17968D01*
X-80516Y18266D01*
X-80517Y18266D01*
X-80518Y18267D01*
X-81509Y18404D01*
X-82138Y18773D01*
X-82140Y18773D01*
X-82141Y18774D01*
X-82937Y19024D01*
X-82939Y19023D01*
X-82940Y19024D01*
X-83668Y19079D01*
X-84560Y19531D01*
X-84562Y19531D01*
X-84562Y19532D01*
X-85517Y19830D01*
X-86077Y20298D01*
X-86079Y20298D01*
X-86079Y20300D01*
X-86824Y20677D01*
X-86826Y20676D01*
X-86827Y20678D01*
X-87535Y20852D01*
X-88342Y21444D01*
X-88343Y21444D01*
X-88343Y21445D01*
X-89236Y21897D01*
X-89711Y22451D01*
X-89713Y22451D01*
X-89713Y22453D01*
X-90386Y22947D01*
X-90388Y22947D01*
X-90388Y22948D01*
X-91059Y23237D01*
X-91756Y23954D01*
X-91758Y23954D01*
X-91758Y23955D01*
X-92564Y24548D01*
X-92942Y25172D01*
X-92943Y25173D01*
X-92943Y25174D01*
X-93525Y25773D01*
X-93527Y25773D01*
X-93528Y25774D01*
X-94141Y26169D01*
X-94711Y26991D01*
X-94713Y26992D01*
X-94713Y26993D01*
X-95410Y27710D01*
X-95680Y28388D01*
X-95682Y28389D01*
X-95681Y28390D01*
X-95950Y28777D01*
X-95952Y28778D01*
X-95952Y28780D01*
X-96243Y29003D01*
X-96718Y29825D01*
X-96733Y29831D01*
X-96733Y29829D01*
X-96734Y29830D01*
X-121595Y15476D01*
X-121888Y16074D01*
X-121904Y16093D01*
X-121912Y16117D01*
X-121964Y16171D01*
X-122010Y16231D01*
X-122032Y16243D01*
X-122049Y16262D01*
X-122117Y16292D01*
X-122183Y16329D01*
X-122208Y16332D01*
X-122231Y16342D01*
X-122306Y16343D01*
X-122381Y16351D01*
X-122405Y16344D01*
X-122430Y16344D01*
X-122535Y16305D01*
X-122571Y16295D01*
X-122577Y16290D01*
X-122586Y16287D01*
X-150153Y433D01*
X-150205Y387D01*
X-150263Y347D01*
X-150279Y321D01*
X-150302Y301D01*
X-150332Y238D01*
X-150370Y179D01*
X-150375Y149D01*
X-150388Y122D01*
X-150391Y52D01*
X-150403Y-17D01*
X-150396Y-46D01*
X-150397Y-77D01*
X-150373Y-142D01*
X-150356Y-210D01*
X-150339Y-235D01*
X-150328Y-263D01*
X-150280Y-314D01*
X-150239Y-370D01*
X-150212Y-386D01*
X-150192Y-408D01*
X-150128Y-436D01*
X-150067Y-472D01*
X-150034Y-477D01*
X-150010Y-488D01*
X-149968Y-488D01*
X-149903Y-499D01*
X-118131Y-485D01*
X-118107Y-480D01*
X-118083Y-483D01*
X-118010Y-460D01*
X-117936Y-445D01*
X-117916Y-432D01*
X-117893Y-424D01*
X-117834Y-376D01*
X-117772Y-333D01*
X-117759Y-312D01*
X-117740Y-297D01*
X-117706Y-229D01*
X-117665Y-165D01*
X-117661Y-141D01*
X-117650Y-120D01*
X-117638Y-4D01*
X-117632Y31D01*
X-117633Y38D01*
X-117633Y46D01*
X-117678Y758D01*
X118018Y755D01*
X117980Y26D01*
X117983Y5D01*
X117980Y-17D01*
X117998Y-93D01*
X118010Y-171D01*
X118021Y-189D01*
X118026Y-210D01*
X118072Y-273D01*
X118113Y-340D01*
X118131Y-353D01*
X118144Y-370D01*
X118211Y-410D01*
X118275Y-456D01*
X118296Y-461D01*
X118315Y-472D01*
X118442Y-493D01*
X118469Y-499D01*
X118474Y-498D01*
X118479Y-499D01*
X150090Y-499D01*
X150158Y-485D01*
G37*
%LPC*%
G36*
X-7803Y17025D02*
X-7803Y17025D01*
X-17183Y21696D01*
X-24242Y29440D01*
X-28028Y39211D01*
X-28028Y49689D01*
X-24242Y59460D01*
X-17183Y67204D01*
X-10738Y70414D01*
X-10367Y70134D01*
X-10336Y70120D01*
X-10299Y70091D01*
X-7591Y68666D01*
X-7559Y68657D01*
X-7517Y68634D01*
X-4616Y67662D01*
X-4583Y67658D01*
X-4582Y67658D01*
X-4538Y67643D01*
X-1519Y67148D01*
X-1485Y67150D01*
X-1439Y67142D01*
X1621Y67138D01*
X1655Y67145D01*
X1701Y67144D01*
X4722Y67632D01*
X4754Y67644D01*
X4800Y67651D01*
X7704Y68616D01*
X7733Y68633D01*
X7778Y68648D01*
X10489Y70066D01*
X10515Y70088D01*
X10557Y70109D01*
X11018Y70455D01*
X12709Y69974D01*
X21072Y63659D01*
X26588Y54750D01*
X28513Y44450D01*
X26588Y34150D01*
X21071Y25241D01*
X12709Y18926D01*
X2631Y16058D01*
X-7803Y17025D01*
G37*
%LPD*%
G36*
X-73022Y25908D02*
X-73022Y25908D01*
X-72988Y25916D01*
X-72940Y25917D01*
X-70184Y26455D01*
X-70152Y26469D01*
X-70105Y26478D01*
X-67476Y27462D01*
X-67446Y27481D01*
X-67401Y27497D01*
X-64969Y28901D01*
X-64943Y28924D01*
X-64902Y28948D01*
X-62734Y30733D01*
X-62713Y30760D01*
X-62675Y30791D01*
X-60831Y32908D01*
X-60814Y32938D01*
X-60783Y32974D01*
X-59312Y35366D01*
X-59300Y35399D01*
X-59275Y35440D01*
X-58218Y38041D01*
X-58212Y38075D01*
X-58194Y38120D01*
X-57580Y40860D01*
X-57579Y40894D01*
X-57568Y40941D01*
X-57414Y43745D01*
X-57419Y43779D01*
X-57416Y43827D01*
X-57725Y46618D01*
X-57736Y46651D01*
X-57741Y46699D01*
X-58505Y49400D01*
X-58521Y49431D01*
X-58534Y49478D01*
X-59732Y52017D01*
X-59749Y52040D01*
X-59760Y52068D01*
X-59808Y52119D01*
X-59851Y52176D01*
X-59876Y52191D01*
X-59896Y52212D01*
X-59961Y52241D01*
X-60023Y52276D01*
X-60052Y52280D01*
X-60078Y52292D01*
X-60149Y52293D01*
X-60220Y52302D01*
X-60248Y52294D01*
X-60277Y52294D01*
X-60370Y52259D01*
X-60411Y52248D01*
X-60420Y52241D01*
X-60433Y52236D01*
X-89878Y35236D01*
X-89900Y35217D01*
X-89926Y35204D01*
X-89959Y35168D01*
X-89964Y35164D01*
X-89970Y35156D01*
X-89974Y35152D01*
X-90027Y35104D01*
X-90039Y35078D01*
X-90059Y35056D01*
X-90082Y34989D01*
X-90113Y34925D01*
X-90114Y34896D01*
X-90123Y34868D01*
X-90118Y34797D01*
X-90121Y34726D01*
X-90111Y34699D01*
X-90109Y34670D01*
X-90067Y34580D01*
X-90052Y34540D01*
X-90044Y34532D01*
X-90039Y34519D01*
X-88439Y32212D01*
X-88414Y32188D01*
X-88386Y32148D01*
X-86428Y30136D01*
X-86400Y30116D01*
X-86366Y30082D01*
X-84104Y28419D01*
X-84072Y28404D01*
X-84034Y28376D01*
X-81529Y27108D01*
X-81495Y27099D01*
X-81452Y27077D01*
X-78772Y26239D01*
X-78738Y26235D01*
X-78692Y26221D01*
X-75911Y25835D01*
X-75876Y25837D01*
X-75829Y25831D01*
X-73022Y25908D01*
G37*
G36*
X76058Y25855D02*
X76058Y25855D01*
X76106Y25853D01*
X78884Y26240D01*
X78917Y26252D01*
X78964Y26258D01*
X81641Y27097D01*
X81671Y27114D01*
X81717Y27128D01*
X84218Y28396D01*
X84246Y28418D01*
X84289Y28440D01*
X86547Y30102D01*
X86571Y30128D01*
X86609Y30156D01*
X86937Y30494D01*
X86938Y30494D01*
X87422Y30993D01*
X87423Y30993D01*
X87907Y31492D01*
X87908Y31492D01*
X88393Y31992D01*
X88564Y32168D01*
X88582Y32197D01*
X88616Y32231D01*
X90213Y34537D01*
X90224Y34564D01*
X90243Y34586D01*
X90263Y34654D01*
X90291Y34720D01*
X90291Y34749D01*
X90299Y34777D01*
X90291Y34848D01*
X90292Y34919D01*
X90280Y34946D01*
X90277Y34975D01*
X90242Y35037D01*
X90215Y35102D01*
X90194Y35122D01*
X90180Y35148D01*
X90118Y35199D01*
X90113Y35205D01*
X90103Y35211D01*
X90073Y35241D01*
X90062Y35245D01*
X90051Y35254D01*
X60629Y52215D01*
X60601Y52224D01*
X60577Y52241D01*
X60508Y52255D01*
X60440Y52278D01*
X60411Y52276D01*
X60383Y52282D01*
X60313Y52268D01*
X60242Y52262D01*
X60216Y52249D01*
X60188Y52243D01*
X60129Y52203D01*
X60066Y52171D01*
X60047Y52148D01*
X60023Y52132D01*
X59966Y52050D01*
X59939Y52017D01*
X59936Y52007D01*
X59928Y51995D01*
X58733Y49458D01*
X58725Y49424D01*
X58704Y49381D01*
X57943Y46682D01*
X57940Y46647D01*
X57927Y46601D01*
X57620Y43813D01*
X57623Y43779D01*
X57618Y43731D01*
X57774Y40931D01*
X57783Y40897D01*
X57786Y40849D01*
X58401Y38113D01*
X58415Y38081D01*
X58425Y38034D01*
X59482Y35436D01*
X59502Y35407D01*
X59520Y35363D01*
X60990Y32975D01*
X61014Y32949D01*
X61039Y32908D01*
X62882Y30795D01*
X62910Y30773D01*
X62941Y30737D01*
X65107Y28956D01*
X65138Y28939D01*
X65175Y28909D01*
X67605Y27508D01*
X67638Y27497D01*
X67679Y27473D01*
X70306Y26491D01*
X70341Y26486D01*
X70386Y26469D01*
X73139Y25933D01*
X73173Y25933D01*
X73221Y25924D01*
X76024Y25849D01*
X76058Y25855D01*
G37*
D10*
X78Y78628D03*
D11*
X133160Y4005D03*
X-134608Y4156D03*
D10*
X71645Y37271D03*
X-71456Y37328D03*
M02*
