G04 EAGLE Gerber RS-274X export*
G75*
%MOMM*%
%FSLAX34Y34*%
%LPD*%
%IN*%
%IPPOS*%
%AMOC8*
5,1,8,0,0,1.08239X$1,22.5*%
G01*
%ADD10C,0.254000*%


D10*
X-149904Y4D02*
X150090Y0D01*
X92Y86604D01*
X-149904Y4D01*
X11500Y43998D02*
X11429Y43097D01*
X11288Y42205D01*
X11077Y41326D01*
X10798Y40467D01*
X10452Y39632D01*
X10041Y38827D01*
X9569Y38056D01*
X9038Y37325D01*
X8451Y36638D01*
X7812Y35999D01*
X7125Y35412D01*
X6394Y34881D01*
X5623Y34409D01*
X4818Y33998D01*
X3983Y33652D01*
X3124Y33373D01*
X2245Y33162D01*
X1353Y33021D01*
X452Y32950D01*
X-452Y32950D01*
X-1353Y33021D01*
X-2245Y33162D01*
X-3124Y33373D01*
X-3983Y33652D01*
X-4818Y33998D01*
X-5623Y34409D01*
X-6394Y34881D01*
X-7125Y35412D01*
X-7812Y35999D01*
X-8451Y36638D01*
X-9038Y37325D01*
X-9569Y38056D01*
X-10041Y38827D01*
X-10452Y39632D01*
X-10798Y40467D01*
X-11077Y41326D01*
X-11288Y42205D01*
X-11429Y43097D01*
X-11500Y43998D01*
X-11500Y44902D01*
X-11429Y45803D01*
X-11288Y46695D01*
X-11077Y47574D01*
X-10798Y48433D01*
X-10452Y49268D01*
X-10041Y50073D01*
X-9569Y50844D01*
X-9038Y51575D01*
X-8451Y52262D01*
X-7812Y52901D01*
X-7125Y53488D01*
X-6394Y54019D01*
X-5623Y54491D01*
X-4818Y54902D01*
X-3983Y55248D01*
X-3124Y55527D01*
X-2245Y55738D01*
X-1353Y55879D01*
X-452Y55950D01*
X452Y55950D01*
X1353Y55879D01*
X2245Y55738D01*
X3124Y55527D01*
X3983Y55248D01*
X4818Y54902D01*
X5623Y54491D01*
X6394Y54019D01*
X7125Y53488D01*
X7812Y52901D01*
X8451Y52262D01*
X9038Y51575D01*
X9569Y50844D01*
X10041Y50073D01*
X10452Y49268D01*
X10798Y48433D01*
X11077Y47574D01*
X11288Y46695D01*
X11429Y45803D01*
X11500Y44902D01*
X11500Y43998D01*
M02*
