G04 EAGLE Gerber RS-274X export*
G75*
%MOMM*%
%FSLAX34Y34*%
%LPD*%
%INSilkscreen Bottom*%
%IPPOS*%
%AMOC8*
5,1,8,0,0,1.08239X$1,22.5*%
G01*
%ADD10C,0.076200*%
%ADD11C,0.254000*%
%ADD12C,0.203200*%


D10*
X111897Y8460D02*
X110331Y8460D01*
X110331Y3239D01*
X113463Y3239D01*
X113552Y3241D01*
X113640Y3247D01*
X113728Y3256D01*
X113816Y3269D01*
X113903Y3286D01*
X113989Y3306D01*
X114074Y3331D01*
X114159Y3358D01*
X114242Y3390D01*
X114323Y3424D01*
X114403Y3463D01*
X114481Y3504D01*
X114558Y3549D01*
X114632Y3597D01*
X114705Y3648D01*
X114775Y3702D01*
X114842Y3760D01*
X114908Y3820D01*
X114970Y3882D01*
X115030Y3948D01*
X115088Y4015D01*
X115142Y4085D01*
X115193Y4158D01*
X115241Y4232D01*
X115286Y4309D01*
X115327Y4387D01*
X115366Y4467D01*
X115400Y4548D01*
X115432Y4631D01*
X115459Y4716D01*
X115484Y4801D01*
X115504Y4887D01*
X115521Y4974D01*
X115534Y5062D01*
X115543Y5150D01*
X115549Y5238D01*
X115551Y5327D01*
X115552Y5327D02*
X115552Y10548D01*
X115551Y10548D02*
X115549Y10637D01*
X115543Y10725D01*
X115534Y10813D01*
X115521Y10901D01*
X115504Y10988D01*
X115484Y11074D01*
X115459Y11159D01*
X115432Y11244D01*
X115400Y11327D01*
X115366Y11408D01*
X115327Y11488D01*
X115286Y11566D01*
X115241Y11643D01*
X115193Y11717D01*
X115142Y11790D01*
X115088Y11860D01*
X115030Y11927D01*
X114970Y11993D01*
X114908Y12055D01*
X114842Y12115D01*
X114775Y12173D01*
X114705Y12227D01*
X114632Y12278D01*
X114558Y12326D01*
X114481Y12371D01*
X114403Y12412D01*
X114323Y12451D01*
X114242Y12485D01*
X114159Y12517D01*
X114074Y12544D01*
X113989Y12569D01*
X113903Y12589D01*
X113816Y12606D01*
X113728Y12619D01*
X113640Y12628D01*
X113552Y12634D01*
X113463Y12636D01*
X113463Y12637D02*
X110331Y12637D01*
X105798Y12637D02*
X105798Y3239D01*
X100577Y3239D02*
X105798Y12637D01*
X100577Y12637D02*
X100577Y3239D01*
X96044Y3239D02*
X96044Y12637D01*
X93434Y12637D01*
X93334Y12635D01*
X93234Y12629D01*
X93135Y12620D01*
X93035Y12606D01*
X92937Y12589D01*
X92839Y12568D01*
X92742Y12544D01*
X92646Y12515D01*
X92551Y12483D01*
X92458Y12448D01*
X92366Y12409D01*
X92275Y12366D01*
X92187Y12320D01*
X92100Y12270D01*
X92015Y12218D01*
X91932Y12162D01*
X91851Y12103D01*
X91773Y12040D01*
X91697Y11975D01*
X91623Y11907D01*
X91553Y11837D01*
X91485Y11763D01*
X91420Y11687D01*
X91357Y11609D01*
X91298Y11528D01*
X91242Y11445D01*
X91190Y11360D01*
X91140Y11273D01*
X91094Y11185D01*
X91051Y11094D01*
X91012Y11002D01*
X90977Y10909D01*
X90945Y10814D01*
X90916Y10718D01*
X90892Y10621D01*
X90871Y10523D01*
X90854Y10425D01*
X90840Y10325D01*
X90831Y10226D01*
X90825Y10126D01*
X90823Y10026D01*
X90823Y5849D01*
X90825Y5749D01*
X90831Y5649D01*
X90840Y5550D01*
X90854Y5450D01*
X90871Y5352D01*
X90892Y5254D01*
X90916Y5157D01*
X90945Y5061D01*
X90977Y4966D01*
X91012Y4873D01*
X91051Y4781D01*
X91094Y4690D01*
X91140Y4602D01*
X91190Y4515D01*
X91242Y4430D01*
X91298Y4347D01*
X91357Y4266D01*
X91420Y4188D01*
X91485Y4112D01*
X91553Y4038D01*
X91623Y3968D01*
X91697Y3900D01*
X91773Y3835D01*
X91851Y3772D01*
X91932Y3713D01*
X92015Y3657D01*
X92100Y3605D01*
X92187Y3555D01*
X92275Y3509D01*
X92366Y3466D01*
X92458Y3427D01*
X92551Y3392D01*
X92646Y3360D01*
X92742Y3331D01*
X92839Y3307D01*
X92937Y3286D01*
X93035Y3269D01*
X93135Y3255D01*
X93234Y3246D01*
X93334Y3240D01*
X93434Y3238D01*
X93434Y3239D02*
X96044Y3239D01*
X-94478Y8460D02*
X-96044Y8460D01*
X-96044Y3239D01*
X-92912Y3239D01*
X-92823Y3241D01*
X-92735Y3247D01*
X-92647Y3256D01*
X-92559Y3269D01*
X-92472Y3286D01*
X-92386Y3306D01*
X-92301Y3331D01*
X-92216Y3358D01*
X-92133Y3390D01*
X-92052Y3424D01*
X-91972Y3463D01*
X-91894Y3504D01*
X-91817Y3549D01*
X-91743Y3597D01*
X-91670Y3648D01*
X-91600Y3702D01*
X-91533Y3760D01*
X-91467Y3820D01*
X-91405Y3882D01*
X-91345Y3948D01*
X-91287Y4015D01*
X-91233Y4085D01*
X-91182Y4158D01*
X-91134Y4232D01*
X-91089Y4309D01*
X-91048Y4387D01*
X-91009Y4467D01*
X-90975Y4548D01*
X-90943Y4631D01*
X-90916Y4716D01*
X-90891Y4801D01*
X-90871Y4887D01*
X-90854Y4974D01*
X-90841Y5062D01*
X-90832Y5150D01*
X-90826Y5238D01*
X-90824Y5327D01*
X-90823Y5327D02*
X-90823Y10548D01*
X-90824Y10548D02*
X-90826Y10639D01*
X-90832Y10730D01*
X-90842Y10821D01*
X-90856Y10911D01*
X-90873Y11000D01*
X-90895Y11088D01*
X-90921Y11176D01*
X-90950Y11262D01*
X-90983Y11347D01*
X-91020Y11430D01*
X-91060Y11512D01*
X-91104Y11592D01*
X-91151Y11670D01*
X-91202Y11746D01*
X-91255Y11819D01*
X-91312Y11890D01*
X-91373Y11959D01*
X-91436Y12024D01*
X-91501Y12087D01*
X-91570Y12147D01*
X-91641Y12205D01*
X-91714Y12258D01*
X-91790Y12309D01*
X-91868Y12356D01*
X-91948Y12400D01*
X-92030Y12440D01*
X-92113Y12477D01*
X-92198Y12510D01*
X-92284Y12539D01*
X-92372Y12565D01*
X-92460Y12587D01*
X-92549Y12604D01*
X-92639Y12618D01*
X-92730Y12628D01*
X-92821Y12634D01*
X-92912Y12636D01*
X-92912Y12637D02*
X-96044Y12637D01*
X-100577Y12637D02*
X-100577Y3239D01*
X-105798Y3239D02*
X-100577Y12637D01*
X-105798Y12637D02*
X-105798Y3239D01*
X-110331Y3239D02*
X-110331Y12637D01*
X-112941Y12637D01*
X-113041Y12635D01*
X-113141Y12629D01*
X-113240Y12620D01*
X-113340Y12606D01*
X-113438Y12589D01*
X-113536Y12568D01*
X-113633Y12544D01*
X-113729Y12515D01*
X-113824Y12483D01*
X-113917Y12448D01*
X-114009Y12409D01*
X-114100Y12366D01*
X-114188Y12320D01*
X-114275Y12270D01*
X-114360Y12218D01*
X-114443Y12162D01*
X-114524Y12103D01*
X-114602Y12040D01*
X-114678Y11975D01*
X-114752Y11907D01*
X-114822Y11837D01*
X-114890Y11763D01*
X-114955Y11687D01*
X-115018Y11609D01*
X-115077Y11528D01*
X-115133Y11445D01*
X-115185Y11360D01*
X-115235Y11273D01*
X-115281Y11185D01*
X-115324Y11094D01*
X-115363Y11002D01*
X-115398Y10909D01*
X-115430Y10814D01*
X-115459Y10718D01*
X-115483Y10621D01*
X-115504Y10523D01*
X-115521Y10425D01*
X-115535Y10325D01*
X-115544Y10226D01*
X-115550Y10126D01*
X-115552Y10026D01*
X-115552Y5849D01*
X-115550Y5749D01*
X-115544Y5649D01*
X-115535Y5550D01*
X-115521Y5450D01*
X-115504Y5352D01*
X-115483Y5254D01*
X-115459Y5157D01*
X-115430Y5061D01*
X-115398Y4966D01*
X-115363Y4873D01*
X-115324Y4781D01*
X-115281Y4690D01*
X-115235Y4602D01*
X-115185Y4515D01*
X-115133Y4430D01*
X-115077Y4347D01*
X-115018Y4266D01*
X-114955Y4188D01*
X-114890Y4112D01*
X-114822Y4038D01*
X-114752Y3968D01*
X-114678Y3900D01*
X-114602Y3835D01*
X-114524Y3772D01*
X-114443Y3713D01*
X-114360Y3657D01*
X-114275Y3605D01*
X-114188Y3555D01*
X-114100Y3509D01*
X-114009Y3466D01*
X-113917Y3427D01*
X-113824Y3392D01*
X-113729Y3360D01*
X-113633Y3331D01*
X-113536Y3307D01*
X-113438Y3286D01*
X-113340Y3269D01*
X-113240Y3255D01*
X-113141Y3246D01*
X-113041Y3240D01*
X-112941Y3238D01*
X-112941Y3239D02*
X-110331Y3239D01*
D11*
X-28500Y44450D02*
X-28491Y45149D01*
X-28466Y45848D01*
X-28423Y46547D01*
X-28363Y47243D01*
X-28286Y47939D01*
X-28192Y48632D01*
X-28080Y49322D01*
X-27952Y50010D01*
X-27808Y50694D01*
X-27646Y51375D01*
X-27468Y52051D01*
X-27273Y52723D01*
X-27062Y53390D01*
X-26834Y54051D01*
X-26590Y54707D01*
X-26331Y55356D01*
X-26055Y55999D01*
X-25764Y56635D01*
X-25457Y57264D01*
X-25135Y57885D01*
X-24797Y58498D01*
X-24445Y59102D01*
X-24078Y59697D01*
X-23697Y60284D01*
X-23301Y60861D01*
X-22891Y61427D01*
X-22468Y61984D01*
X-22031Y62530D01*
X-21580Y63065D01*
X-21117Y63589D01*
X-20641Y64102D01*
X-20153Y64603D01*
X-19652Y65091D01*
X-19139Y65567D01*
X-18615Y66030D01*
X-18080Y66481D01*
X-17534Y66918D01*
X-16977Y67341D01*
X-16411Y67751D01*
X-15834Y68147D01*
X-15247Y68528D01*
X-14652Y68895D01*
X-14048Y69247D01*
X-13435Y69585D01*
X-12814Y69907D01*
X-12185Y70214D01*
X-11549Y70505D01*
X-10906Y70781D01*
X-10257Y71040D01*
X-9601Y71284D01*
X-8940Y71512D01*
X-8273Y71723D01*
X-7601Y71918D01*
X-6925Y72096D01*
X-6244Y72258D01*
X-5560Y72402D01*
X-4872Y72530D01*
X-4182Y72642D01*
X-3489Y72736D01*
X-2793Y72813D01*
X-2097Y72873D01*
X-1398Y72916D01*
X-699Y72941D01*
X0Y72950D01*
X699Y72941D01*
X1398Y72916D01*
X2097Y72873D01*
X2793Y72813D01*
X3489Y72736D01*
X4182Y72642D01*
X4872Y72530D01*
X5560Y72402D01*
X6244Y72258D01*
X6925Y72096D01*
X7601Y71918D01*
X8273Y71723D01*
X8940Y71512D01*
X9601Y71284D01*
X10257Y71040D01*
X10906Y70781D01*
X11549Y70505D01*
X12185Y70214D01*
X12814Y69907D01*
X13435Y69585D01*
X14048Y69247D01*
X14652Y68895D01*
X15247Y68528D01*
X15834Y68147D01*
X16411Y67751D01*
X16977Y67341D01*
X17534Y66918D01*
X18080Y66481D01*
X18615Y66030D01*
X19139Y65567D01*
X19652Y65091D01*
X20153Y64603D01*
X20641Y64102D01*
X21117Y63589D01*
X21580Y63065D01*
X22031Y62530D01*
X22468Y61984D01*
X22891Y61427D01*
X23301Y60861D01*
X23697Y60284D01*
X24078Y59697D01*
X24445Y59102D01*
X24797Y58498D01*
X25135Y57885D01*
X25457Y57264D01*
X25764Y56635D01*
X26055Y55999D01*
X26331Y55356D01*
X26590Y54707D01*
X26834Y54051D01*
X27062Y53390D01*
X27273Y52723D01*
X27468Y52051D01*
X27646Y51375D01*
X27808Y50694D01*
X27952Y50010D01*
X28080Y49322D01*
X28192Y48632D01*
X28286Y47939D01*
X28363Y47243D01*
X28423Y46547D01*
X28466Y45848D01*
X28491Y45149D01*
X28500Y44450D01*
X28491Y43751D01*
X28466Y43052D01*
X28423Y42353D01*
X28363Y41657D01*
X28286Y40961D01*
X28192Y40268D01*
X28080Y39578D01*
X27952Y38890D01*
X27808Y38206D01*
X27646Y37525D01*
X27468Y36849D01*
X27273Y36177D01*
X27062Y35510D01*
X26834Y34849D01*
X26590Y34193D01*
X26331Y33544D01*
X26055Y32901D01*
X25764Y32265D01*
X25457Y31636D01*
X25135Y31015D01*
X24797Y30402D01*
X24445Y29798D01*
X24078Y29203D01*
X23697Y28616D01*
X23301Y28039D01*
X22891Y27473D01*
X22468Y26916D01*
X22031Y26370D01*
X21580Y25835D01*
X21117Y25311D01*
X20641Y24798D01*
X20153Y24297D01*
X19652Y23809D01*
X19139Y23333D01*
X18615Y22870D01*
X18080Y22419D01*
X17534Y21982D01*
X16977Y21559D01*
X16411Y21149D01*
X15834Y20753D01*
X15247Y20372D01*
X14652Y20005D01*
X14048Y19653D01*
X13435Y19315D01*
X12814Y18993D01*
X12185Y18686D01*
X11549Y18395D01*
X10906Y18119D01*
X10257Y17860D01*
X9601Y17616D01*
X8940Y17388D01*
X8273Y17177D01*
X7601Y16982D01*
X6925Y16804D01*
X6244Y16642D01*
X5560Y16498D01*
X4872Y16370D01*
X4182Y16258D01*
X3489Y16164D01*
X2793Y16087D01*
X2097Y16027D01*
X1398Y15984D01*
X699Y15959D01*
X0Y15950D01*
X-699Y15959D01*
X-1398Y15984D01*
X-2097Y16027D01*
X-2793Y16087D01*
X-3489Y16164D01*
X-4182Y16258D01*
X-4872Y16370D01*
X-5560Y16498D01*
X-6244Y16642D01*
X-6925Y16804D01*
X-7601Y16982D01*
X-8273Y17177D01*
X-8940Y17388D01*
X-9601Y17616D01*
X-10257Y17860D01*
X-10906Y18119D01*
X-11549Y18395D01*
X-12185Y18686D01*
X-12814Y18993D01*
X-13435Y19315D01*
X-14048Y19653D01*
X-14652Y20005D01*
X-15247Y20372D01*
X-15834Y20753D01*
X-16411Y21149D01*
X-16977Y21559D01*
X-17534Y21982D01*
X-18080Y22419D01*
X-18615Y22870D01*
X-19139Y23333D01*
X-19652Y23809D01*
X-20153Y24297D01*
X-20641Y24798D01*
X-21117Y25311D01*
X-21580Y25835D01*
X-22031Y26370D01*
X-22468Y26916D01*
X-22891Y27473D01*
X-23301Y28039D01*
X-23697Y28616D01*
X-24078Y29203D01*
X-24445Y29798D01*
X-24797Y30402D01*
X-25135Y31015D01*
X-25457Y31636D01*
X-25764Y32265D01*
X-26055Y32901D01*
X-26331Y33544D01*
X-26590Y34193D01*
X-26834Y34849D01*
X-27062Y35510D01*
X-27273Y36177D01*
X-27468Y36849D01*
X-27646Y37525D01*
X-27808Y38206D01*
X-27952Y38890D01*
X-28080Y39578D01*
X-28192Y40268D01*
X-28286Y40961D01*
X-28363Y41657D01*
X-28423Y42353D01*
X-28466Y43052D01*
X-28491Y43751D01*
X-28500Y44450D01*
D12*
X-8636Y35306D02*
X-38100Y6604D01*
X-55800Y6427D02*
X-63500Y6350D01*
X-45800Y6527D02*
X-38100Y6604D01*
D10*
X73039Y11176D02*
X73039Y20574D01*
X69906Y15353D01*
X66774Y20574D01*
X66774Y11176D01*
X59587Y20575D02*
X59492Y20573D01*
X59398Y20567D01*
X59304Y20558D01*
X59210Y20545D01*
X59117Y20528D01*
X59025Y20507D01*
X58933Y20482D01*
X58843Y20454D01*
X58754Y20422D01*
X58666Y20387D01*
X58580Y20348D01*
X58495Y20306D01*
X58412Y20260D01*
X58331Y20211D01*
X58252Y20159D01*
X58175Y20104D01*
X58101Y20045D01*
X58029Y19984D01*
X57959Y19920D01*
X57892Y19853D01*
X57828Y19783D01*
X57767Y19711D01*
X57708Y19637D01*
X57653Y19560D01*
X57601Y19481D01*
X57552Y19400D01*
X57506Y19317D01*
X57464Y19232D01*
X57425Y19146D01*
X57390Y19058D01*
X57358Y18969D01*
X57330Y18879D01*
X57305Y18787D01*
X57284Y18695D01*
X57267Y18602D01*
X57254Y18508D01*
X57245Y18414D01*
X57239Y18320D01*
X57237Y18225D01*
X59587Y20574D02*
X59695Y20572D01*
X59804Y20566D01*
X59912Y20556D01*
X60019Y20543D01*
X60126Y20525D01*
X60233Y20504D01*
X60338Y20479D01*
X60443Y20450D01*
X60546Y20418D01*
X60648Y20381D01*
X60749Y20341D01*
X60848Y20298D01*
X60946Y20251D01*
X61042Y20200D01*
X61136Y20146D01*
X61228Y20089D01*
X61318Y20028D01*
X61406Y19964D01*
X61491Y19898D01*
X61574Y19828D01*
X61654Y19755D01*
X61732Y19679D01*
X61807Y19601D01*
X61879Y19520D01*
X61948Y19436D01*
X62014Y19350D01*
X62077Y19262D01*
X62136Y19171D01*
X62193Y19079D01*
X62246Y18984D01*
X62295Y18887D01*
X62341Y18789D01*
X62384Y18690D01*
X62423Y18588D01*
X62458Y18486D01*
X58020Y16397D02*
X57951Y16466D01*
X57885Y16537D01*
X57821Y16610D01*
X57760Y16686D01*
X57702Y16765D01*
X57648Y16845D01*
X57596Y16928D01*
X57548Y17012D01*
X57502Y17098D01*
X57461Y17186D01*
X57422Y17276D01*
X57387Y17367D01*
X57356Y17459D01*
X57328Y17552D01*
X57304Y17646D01*
X57284Y17741D01*
X57267Y17837D01*
X57254Y17934D01*
X57245Y18031D01*
X57239Y18128D01*
X57237Y18225D01*
X58021Y16397D02*
X62459Y11176D01*
X57238Y11176D01*
X53708Y11176D02*
X53708Y11698D01*
X53186Y11698D01*
X53186Y11176D01*
X53708Y11176D01*
X49657Y11176D02*
X46524Y11176D01*
X46435Y11178D01*
X46347Y11184D01*
X46259Y11193D01*
X46171Y11206D01*
X46084Y11223D01*
X45998Y11243D01*
X45913Y11268D01*
X45828Y11295D01*
X45745Y11327D01*
X45664Y11361D01*
X45584Y11400D01*
X45506Y11441D01*
X45429Y11486D01*
X45355Y11534D01*
X45282Y11585D01*
X45212Y11639D01*
X45145Y11697D01*
X45079Y11757D01*
X45017Y11819D01*
X44957Y11885D01*
X44899Y11952D01*
X44845Y12022D01*
X44794Y12095D01*
X44746Y12169D01*
X44701Y12246D01*
X44660Y12324D01*
X44621Y12404D01*
X44587Y12485D01*
X44555Y12568D01*
X44528Y12653D01*
X44503Y12738D01*
X44483Y12824D01*
X44466Y12911D01*
X44453Y12999D01*
X44444Y13087D01*
X44438Y13175D01*
X44436Y13264D01*
X44436Y14309D01*
X44438Y14398D01*
X44444Y14486D01*
X44453Y14574D01*
X44466Y14662D01*
X44483Y14749D01*
X44503Y14835D01*
X44528Y14920D01*
X44555Y15005D01*
X44587Y15088D01*
X44621Y15169D01*
X44660Y15249D01*
X44701Y15327D01*
X44746Y15404D01*
X44794Y15478D01*
X44845Y15551D01*
X44899Y15621D01*
X44957Y15688D01*
X45017Y15754D01*
X45079Y15816D01*
X45145Y15876D01*
X45212Y15934D01*
X45282Y15988D01*
X45355Y16039D01*
X45429Y16087D01*
X45506Y16132D01*
X45584Y16173D01*
X45664Y16212D01*
X45745Y16246D01*
X45828Y16278D01*
X45913Y16305D01*
X45998Y16330D01*
X46084Y16350D01*
X46171Y16367D01*
X46259Y16380D01*
X46347Y16389D01*
X46435Y16395D01*
X46524Y16397D01*
X49657Y16397D01*
X49657Y20574D01*
X44436Y20574D01*
X-47662Y18987D02*
X-47662Y9589D01*
X-50794Y13765D02*
X-47662Y18987D01*
X-50794Y13765D02*
X-53927Y18987D01*
X-53927Y9589D01*
X-61114Y18987D02*
X-61209Y18985D01*
X-61303Y18979D01*
X-61397Y18970D01*
X-61491Y18957D01*
X-61584Y18940D01*
X-61676Y18919D01*
X-61768Y18894D01*
X-61858Y18866D01*
X-61947Y18834D01*
X-62035Y18799D01*
X-62121Y18760D01*
X-62206Y18718D01*
X-62289Y18672D01*
X-62370Y18623D01*
X-62449Y18571D01*
X-62526Y18516D01*
X-62600Y18457D01*
X-62672Y18396D01*
X-62742Y18332D01*
X-62809Y18265D01*
X-62873Y18195D01*
X-62934Y18123D01*
X-62993Y18049D01*
X-63048Y17972D01*
X-63100Y17893D01*
X-63149Y17812D01*
X-63195Y17729D01*
X-63237Y17644D01*
X-63276Y17558D01*
X-63311Y17470D01*
X-63343Y17381D01*
X-63371Y17291D01*
X-63396Y17199D01*
X-63417Y17107D01*
X-63434Y17014D01*
X-63447Y16920D01*
X-63456Y16826D01*
X-63462Y16732D01*
X-63464Y16637D01*
X-61114Y18986D02*
X-61006Y18984D01*
X-60897Y18978D01*
X-60789Y18968D01*
X-60682Y18955D01*
X-60575Y18937D01*
X-60468Y18916D01*
X-60363Y18891D01*
X-60258Y18862D01*
X-60155Y18830D01*
X-60053Y18793D01*
X-59952Y18753D01*
X-59853Y18710D01*
X-59755Y18663D01*
X-59659Y18612D01*
X-59565Y18558D01*
X-59473Y18501D01*
X-59383Y18440D01*
X-59295Y18376D01*
X-59210Y18310D01*
X-59127Y18240D01*
X-59047Y18167D01*
X-58969Y18091D01*
X-58894Y18013D01*
X-58822Y17932D01*
X-58753Y17848D01*
X-58687Y17762D01*
X-58624Y17674D01*
X-58565Y17583D01*
X-58508Y17491D01*
X-58455Y17396D01*
X-58406Y17300D01*
X-58360Y17201D01*
X-58317Y17102D01*
X-58278Y17000D01*
X-58243Y16898D01*
X-62681Y14809D02*
X-62750Y14878D01*
X-62816Y14949D01*
X-62880Y15022D01*
X-62941Y15098D01*
X-62999Y15177D01*
X-63053Y15257D01*
X-63105Y15340D01*
X-63153Y15424D01*
X-63199Y15510D01*
X-63240Y15598D01*
X-63279Y15688D01*
X-63314Y15779D01*
X-63345Y15871D01*
X-63373Y15964D01*
X-63397Y16058D01*
X-63417Y16153D01*
X-63434Y16249D01*
X-63447Y16346D01*
X-63456Y16443D01*
X-63462Y16540D01*
X-63464Y16637D01*
X-62680Y14810D02*
X-58242Y9589D01*
X-63463Y9589D01*
D12*
X39370Y6604D02*
X51642Y6604D01*
X61642Y6604D02*
X73914Y6604D01*
X39370Y6604D02*
X20320Y23114D01*
M02*
