G04 EAGLE Gerber X2 export*
G04 #@! %TF.Part,Single*
G04 #@! %TF.FileFunction,Copper,L2,Bot,Mixed*
G04 #@! %TF.FilePolarity,Positive*
G04 #@! %TF.GenerationSoftware,Autodesk,EAGLE,8.7.1*
G04 #@! %TF.CreationDate,2018-11-26T06:11:13Z*
G75*
%MOMM*%
%FSLAX34Y34*%
%LPD*%
%AMOC8*
5,1,8,0,0,1.08239X$1,22.5*%
G01*
%ADD10C,1.000000*%
%ADD11C,0.609600*%

G36*
X192791Y253760D02*
X192791Y253760D01*
X192818Y253758D01*
X192888Y253780D01*
X192960Y253794D01*
X192982Y253809D01*
X193007Y253817D01*
X193063Y253865D01*
X193124Y253907D01*
X193138Y253929D01*
X193159Y253947D01*
X193191Y254013D01*
X193231Y254074D01*
X193235Y254101D01*
X193247Y254125D01*
X193257Y254231D01*
X193264Y254271D01*
X193262Y254279D01*
X193263Y254290D01*
X193211Y255012D01*
X454315Y255009D01*
X454276Y254281D01*
X454279Y254259D01*
X454276Y254237D01*
X454294Y254161D01*
X454305Y254084D01*
X454317Y254065D01*
X454322Y254044D01*
X454368Y253981D01*
X454409Y253914D01*
X454427Y253902D01*
X454440Y253884D01*
X454507Y253844D01*
X454570Y253798D01*
X454592Y253794D01*
X454611Y253782D01*
X454735Y253761D01*
X454764Y253755D01*
X454769Y253756D01*
X454775Y253755D01*
X473686Y253755D01*
X473754Y253769D01*
X473822Y253774D01*
X473850Y253788D01*
X473881Y253794D01*
X473938Y253834D01*
X473999Y253865D01*
X474019Y253889D01*
X474045Y253907D01*
X474082Y253965D01*
X474126Y254018D01*
X474135Y254048D01*
X474152Y254074D01*
X474163Y254143D01*
X474183Y254209D01*
X474180Y254240D01*
X474185Y254271D01*
X474169Y254338D01*
X474161Y254406D01*
X474146Y254434D01*
X474139Y254464D01*
X474098Y254520D01*
X474064Y254580D01*
X474037Y254602D01*
X474021Y254624D01*
X473985Y254645D01*
X473936Y254686D01*
X457459Y264225D01*
X457432Y264234D01*
X457409Y264251D01*
X457339Y264266D01*
X457270Y264289D01*
X457242Y264287D01*
X457215Y264293D01*
X457144Y264279D01*
X457072Y264274D01*
X457047Y264261D01*
X457019Y264255D01*
X456959Y264215D01*
X456895Y264182D01*
X456877Y264160D01*
X456854Y264145D01*
X456795Y264061D01*
X456768Y264029D01*
X456765Y264019D01*
X456758Y264009D01*
X456438Y263341D01*
X420498Y284091D01*
X420483Y284088D01*
X420483Y284087D01*
X420482Y284087D01*
X420016Y283279D01*
X419726Y283056D01*
X419726Y283053D01*
X419724Y283053D01*
X419457Y282669D01*
X419457Y282667D01*
X419456Y282666D01*
X419187Y281988D01*
X418489Y281271D01*
X418489Y281269D01*
X418488Y281269D01*
X417919Y280446D01*
X417305Y280051D01*
X417305Y280049D01*
X417303Y280049D01*
X416724Y279453D01*
X416724Y279451D01*
X416722Y279451D01*
X416344Y278826D01*
X415539Y278233D01*
X415538Y278232D01*
X415537Y278232D01*
X414840Y277514D01*
X414170Y277225D01*
X414169Y277224D01*
X414168Y277224D01*
X413498Y276731D01*
X413498Y276729D01*
X413496Y276729D01*
X413021Y276175D01*
X412128Y275723D01*
X412128Y275722D01*
X412127Y275722D01*
X411321Y275129D01*
X410613Y274954D01*
X410611Y274953D01*
X410610Y274953D01*
X409868Y274577D01*
X409868Y274576D01*
X409866Y274576D01*
X409306Y274108D01*
X408352Y273808D01*
X408351Y273807D01*
X408350Y273808D01*
X407457Y273355D01*
X406730Y273300D01*
X406729Y273298D01*
X406727Y273299D01*
X405934Y273050D01*
X405933Y273049D01*
X405931Y273049D01*
X405302Y272679D01*
X404311Y272541D01*
X404310Y272540D01*
X404309Y272541D01*
X403355Y272242D01*
X402628Y272307D01*
X402627Y272306D01*
X402625Y272306D01*
X401801Y272192D01*
X401800Y272190D01*
X401799Y272191D01*
X401117Y271930D01*
X400887Y271936D01*
X400886Y271936D01*
X400443Y271948D01*
X400442Y271948D01*
X400117Y271957D01*
X400116Y271956D01*
X400115Y271957D01*
X399124Y271819D01*
X398418Y272002D01*
X398416Y272001D01*
X398415Y272003D01*
X398224Y272008D01*
X397780Y272020D01*
X397779Y272020D01*
X397584Y272025D01*
X397583Y272024D01*
X397581Y272025D01*
X396866Y271879D01*
X395884Y272071D01*
X395883Y272070D01*
X395882Y272071D01*
X395561Y272079D01*
X395560Y272079D01*
X395118Y272091D01*
X395117Y272091D01*
X394882Y272098D01*
X394216Y272395D01*
X394214Y272394D01*
X394213Y272396D01*
X393397Y272555D01*
X393395Y272554D01*
X393394Y272555D01*
X393110Y272545D01*
X392771Y272533D01*
X392770Y272533D01*
X392665Y272529D01*
X391728Y272879D01*
X391726Y272879D01*
X391726Y272880D01*
X390744Y273071D01*
X390135Y273474D01*
X390133Y273474D01*
X390133Y273475D01*
X389354Y273766D01*
X389352Y273766D01*
X389351Y273767D01*
X388628Y273862D01*
X387761Y274361D01*
X387760Y274361D01*
X387759Y274362D01*
X386822Y274712D01*
X386288Y275210D01*
X386286Y275210D01*
X386286Y275212D01*
X385566Y275627D01*
X385564Y275627D01*
X385563Y275628D01*
X384865Y275841D01*
X384092Y276476D01*
X384091Y276476D01*
X384091Y276477D01*
X383224Y276977D01*
X382779Y277556D01*
X382777Y277556D01*
X382777Y277558D01*
X382135Y278086D01*
X382133Y278086D01*
X382133Y278087D01*
X381479Y278412D01*
X380822Y279166D01*
X380820Y279166D01*
X380820Y279167D01*
X380048Y279803D01*
X379704Y280447D01*
X379703Y280447D01*
X379703Y280449D01*
X379156Y281076D01*
X379154Y281076D01*
X379154Y281077D01*
X378563Y281505D01*
X378038Y282357D01*
X378037Y282358D01*
X378037Y282359D01*
X377380Y283113D01*
X377147Y283804D01*
X377146Y283805D01*
X377146Y283807D01*
X376710Y284515D01*
X376708Y284516D01*
X376708Y284517D01*
X376195Y285036D01*
X375818Y285963D01*
X375817Y285964D01*
X375818Y285965D01*
X375293Y286817D01*
X375177Y287537D01*
X375176Y287539D01*
X375177Y287540D01*
X374863Y288310D01*
X374862Y288311D01*
X374862Y288312D01*
X374442Y288909D01*
X374222Y289885D01*
X374221Y289886D01*
X374222Y289887D01*
X373845Y290814D01*
X373849Y291543D01*
X373848Y291545D01*
X373849Y291546D01*
X373666Y292357D01*
X373665Y292359D01*
X373666Y292360D01*
X373349Y293018D01*
X373293Y294017D01*
X373292Y294018D01*
X373293Y294019D01*
X373074Y294994D01*
X373198Y295714D01*
X373197Y295715D01*
X373198Y295716D01*
X373152Y296547D01*
X373151Y296548D01*
X373152Y296549D01*
X372948Y297250D01*
X372948Y297254D01*
X372949Y297266D01*
X372950Y297266D01*
X372988Y297612D01*
X372989Y297624D01*
X372990Y297636D01*
X372992Y297648D01*
X372993Y297660D01*
X373031Y298006D01*
X373032Y298018D01*
X373034Y298030D01*
X373035Y298042D01*
X373036Y298054D01*
X373057Y298244D01*
X373057Y298245D01*
X373056Y298246D01*
X373057Y298246D01*
X373001Y299245D01*
X373243Y299934D01*
X373242Y299936D01*
X373243Y299937D01*
X373245Y299952D01*
X373246Y299964D01*
X373248Y299976D01*
X373249Y299988D01*
X373283Y300298D01*
X373284Y300310D01*
X373286Y300322D01*
X373287Y300334D01*
X373288Y300346D01*
X373322Y300656D01*
X373323Y300656D01*
X373322Y300656D01*
X373324Y300668D01*
X373325Y300680D01*
X373326Y300692D01*
X373328Y300704D01*
X373334Y300763D01*
X373334Y300764D01*
X373333Y300765D01*
X373334Y300766D01*
X373248Y301491D01*
X373520Y302454D01*
X373519Y302455D01*
X373520Y302455D01*
X373556Y302781D01*
X373558Y302793D01*
X373559Y302805D01*
X373560Y302817D01*
X373561Y302829D01*
X373562Y302829D01*
X373563Y302841D01*
X373564Y302853D01*
X373609Y303259D01*
X373610Y303271D01*
X373611Y303282D01*
X373611Y303283D01*
X373613Y303294D01*
X373614Y303306D01*
X373615Y303318D01*
X373630Y303450D01*
X373981Y304090D01*
X373981Y304091D01*
X373982Y304092D01*
X374208Y304892D01*
X374207Y304893D01*
X374208Y304894D01*
X374208Y304895D01*
X374243Y305624D01*
X374669Y306529D01*
X374669Y306530D01*
X374670Y306531D01*
X374942Y307494D01*
X375394Y308067D01*
X375393Y308069D01*
X375395Y308069D01*
X375594Y308492D01*
X375594Y308495D01*
X375595Y308496D01*
X375625Y308726D01*
X375626Y308726D01*
X375625Y308726D01*
X375627Y308738D01*
X375629Y308750D01*
X375630Y308762D01*
X375632Y308774D01*
X375633Y308786D01*
X375635Y308798D01*
X375636Y308810D01*
X375638Y308821D01*
X375638Y308822D01*
X375640Y308833D01*
X375641Y308845D01*
X375643Y308859D01*
X376126Y309697D01*
X376123Y309712D01*
X376122Y309712D01*
X376121Y309713D01*
X340181Y330464D01*
X340576Y331034D01*
X340587Y331061D01*
X340605Y331083D01*
X340626Y331151D01*
X340654Y331217D01*
X340654Y331246D01*
X340662Y331273D01*
X340655Y331344D01*
X340655Y331416D01*
X340644Y331442D01*
X340641Y331471D01*
X340606Y331533D01*
X340578Y331599D01*
X340557Y331619D01*
X340543Y331644D01*
X340466Y331709D01*
X340436Y331738D01*
X340426Y331742D01*
X340415Y331750D01*
X323938Y341290D01*
X323864Y341315D01*
X323793Y341346D01*
X323771Y341346D01*
X323750Y341353D01*
X323672Y341347D01*
X323594Y341348D01*
X323571Y341339D01*
X323551Y341338D01*
X323512Y341317D01*
X323438Y341290D01*
X306984Y331790D01*
X306963Y331771D01*
X306937Y331759D01*
X306889Y331706D01*
X306835Y331658D01*
X306823Y331633D01*
X306804Y331612D01*
X306780Y331544D01*
X306749Y331479D01*
X306748Y331451D01*
X306739Y331424D01*
X306743Y331352D01*
X306740Y331280D01*
X306750Y331254D01*
X306752Y331225D01*
X306795Y331133D01*
X306810Y331094D01*
X306817Y331086D01*
X306822Y331075D01*
X307229Y330484D01*
X271273Y309724D01*
X271268Y309710D01*
X271269Y309709D01*
X271269Y309708D01*
X271743Y308886D01*
X271791Y308523D01*
X271793Y308521D01*
X271792Y308519D01*
X271993Y308093D01*
X271995Y308093D01*
X271995Y308091D01*
X272447Y307518D01*
X272719Y306555D01*
X272720Y306555D01*
X272720Y306554D01*
X273147Y305649D01*
X273182Y304920D01*
X273183Y304919D01*
X273182Y304917D01*
X273410Y304114D01*
X273411Y304113D01*
X273411Y304112D01*
X273762Y303472D01*
X273872Y302478D01*
X273873Y302477D01*
X273873Y302476D01*
X274145Y301513D01*
X274060Y300788D01*
X274061Y300787D01*
X274060Y300786D01*
X274152Y299956D01*
X274153Y299955D01*
X274152Y299953D01*
X274394Y299265D01*
X274339Y298266D01*
X274340Y298265D01*
X274339Y298264D01*
X274449Y297269D01*
X274245Y296569D01*
X274246Y296567D01*
X274245Y296566D01*
X274199Y295732D01*
X274200Y295731D01*
X274199Y295730D01*
X274324Y295011D01*
X274105Y294035D01*
X274106Y294034D01*
X274105Y294034D01*
X274106Y294033D01*
X274105Y294033D01*
X274050Y293034D01*
X273734Y292376D01*
X273734Y292375D01*
X273734Y292374D01*
X273735Y292374D01*
X273733Y292373D01*
X273551Y291559D01*
X273552Y291557D01*
X273550Y291556D01*
X273555Y290826D01*
X273179Y289899D01*
X273179Y289898D01*
X273178Y289897D01*
X272960Y288921D01*
X272540Y288324D01*
X272540Y288323D01*
X272538Y288322D01*
X272224Y287549D01*
X272225Y287547D01*
X272223Y287546D01*
X272108Y286825D01*
X271584Y285973D01*
X271585Y285972D01*
X271584Y285971D01*
X271207Y285044D01*
X270694Y284525D01*
X270694Y284523D01*
X270693Y284523D01*
X270256Y283812D01*
X270256Y283810D01*
X270255Y283809D01*
X270022Y283117D01*
X269365Y282363D01*
X269365Y282361D01*
X269364Y282361D01*
X268840Y281509D01*
X268249Y281081D01*
X268249Y281079D01*
X268247Y281079D01*
X267699Y280449D01*
X267699Y280448D01*
X267698Y280447D01*
X267355Y279803D01*
X266582Y279167D01*
X266582Y279166D01*
X266581Y279166D01*
X265924Y278411D01*
X265270Y278086D01*
X265270Y278084D01*
X265268Y278085D01*
X264624Y277554D01*
X264624Y277552D01*
X264622Y277552D01*
X264178Y276973D01*
X263311Y276473D01*
X263311Y276472D01*
X263310Y276472D01*
X262538Y275836D01*
X261839Y275623D01*
X261838Y275621D01*
X261837Y275622D01*
X261114Y275204D01*
X261113Y275202D01*
X261112Y275203D01*
X260578Y274705D01*
X259641Y274354D01*
X259641Y274353D01*
X259640Y274353D01*
X258773Y273853D01*
X258050Y273758D01*
X258048Y273756D01*
X258047Y273757D01*
X257265Y273464D01*
X257265Y273463D01*
X257263Y273463D01*
X256655Y273060D01*
X255673Y272868D01*
X255672Y272867D01*
X255671Y272867D01*
X254734Y272517D01*
X254602Y272521D01*
X254601Y272521D01*
X254255Y272533D01*
X254005Y272542D01*
X254003Y272540D01*
X254002Y272541D01*
X253183Y272381D01*
X253182Y272380D01*
X253180Y272381D01*
X252514Y272083D01*
X252390Y272079D01*
X252389Y272079D01*
X251957Y272067D01*
X251956Y272067D01*
X251524Y272056D01*
X251523Y272056D01*
X251523Y272055D01*
X251514Y272055D01*
X251513Y272054D01*
X251512Y272055D01*
X250530Y271863D01*
X249815Y272008D01*
X249814Y272008D01*
X249812Y272008D01*
X249793Y272008D01*
X249792Y272008D01*
X249360Y271996D01*
X249359Y271996D01*
X248978Y271985D01*
X248976Y271984D01*
X248975Y271985D01*
X248269Y271801D01*
X247278Y271938D01*
X247277Y271938D01*
X247276Y271938D01*
X247194Y271936D01*
X247193Y271936D01*
X246762Y271924D01*
X246761Y271924D01*
X246329Y271912D01*
X246328Y271912D01*
X246276Y271911D01*
X245594Y272171D01*
X245592Y272171D01*
X245591Y272172D01*
X244765Y272287D01*
X244763Y272286D01*
X244762Y272287D01*
X244035Y272222D01*
X243080Y272520D01*
X243079Y272520D01*
X243078Y272521D01*
X242087Y272658D01*
X241458Y273027D01*
X241456Y273027D01*
X241455Y273028D01*
X240659Y273278D01*
X240657Y273277D01*
X240656Y273278D01*
X239928Y273333D01*
X239036Y273785D01*
X239034Y273785D01*
X239034Y273786D01*
X238079Y274084D01*
X237519Y274552D01*
X237517Y274552D01*
X237517Y274554D01*
X236772Y274931D01*
X236770Y274930D01*
X236769Y274932D01*
X236061Y275106D01*
X235254Y275698D01*
X235253Y275698D01*
X235253Y275699D01*
X234360Y276151D01*
X233885Y276705D01*
X233883Y276705D01*
X233883Y276707D01*
X233210Y277201D01*
X233208Y277201D01*
X233208Y277202D01*
X232537Y277491D01*
X231840Y278208D01*
X231838Y278208D01*
X231838Y278209D01*
X231032Y278802D01*
X230654Y279426D01*
X230653Y279427D01*
X230653Y279428D01*
X230071Y280027D01*
X230069Y280027D01*
X230068Y280028D01*
X229455Y280423D01*
X228885Y281245D01*
X228883Y281246D01*
X228883Y281247D01*
X228186Y281964D01*
X227916Y282642D01*
X227914Y282643D01*
X227915Y282644D01*
X227646Y283031D01*
X227644Y283032D01*
X227644Y283034D01*
X227353Y283257D01*
X226878Y284079D01*
X226863Y284085D01*
X226863Y284083D01*
X226862Y284084D01*
X190919Y263332D01*
X190593Y263982D01*
X190579Y264000D01*
X190571Y264022D01*
X190518Y264078D01*
X190470Y264138D01*
X190450Y264149D01*
X190434Y264166D01*
X190363Y264197D01*
X190296Y264234D01*
X190273Y264237D01*
X190252Y264246D01*
X190175Y264247D01*
X190098Y264255D01*
X190076Y264248D01*
X190053Y264248D01*
X189940Y264206D01*
X189908Y264196D01*
X189904Y264193D01*
X189897Y264190D01*
X173443Y254686D01*
X173391Y254640D01*
X173334Y254601D01*
X173317Y254575D01*
X173294Y254555D01*
X173264Y254492D01*
X173227Y254434D01*
X173221Y254403D01*
X173208Y254375D01*
X173205Y254306D01*
X173193Y254237D01*
X173201Y254207D01*
X173199Y254177D01*
X173223Y254112D01*
X173239Y254044D01*
X173258Y254019D01*
X173269Y253990D01*
X173316Y253940D01*
X173357Y253884D01*
X173384Y253868D01*
X173405Y253846D01*
X173469Y253818D01*
X173528Y253782D01*
X173563Y253777D01*
X173587Y253766D01*
X173629Y253765D01*
X173692Y253755D01*
X192765Y253755D01*
X192791Y253760D01*
G37*
%LPC*%
G36*
X316047Y269457D02*
X316047Y269457D01*
X306667Y274128D01*
X299608Y281872D01*
X295822Y291643D01*
X295822Y302121D01*
X299608Y311892D01*
X306667Y319636D01*
X314672Y323622D01*
X316005Y322920D01*
X316037Y322911D01*
X316079Y322888D01*
X318980Y321916D01*
X319013Y321912D01*
X319014Y321912D01*
X319058Y321897D01*
X322077Y321402D01*
X322111Y321404D01*
X322158Y321396D01*
X325217Y321392D01*
X325251Y321399D01*
X325297Y321398D01*
X328318Y321886D01*
X328350Y321898D01*
X328396Y321905D01*
X331300Y322870D01*
X331329Y322887D01*
X331374Y322902D01*
X332587Y323536D01*
X336559Y322406D01*
X344922Y316091D01*
X350438Y307182D01*
X352363Y296882D01*
X350438Y286582D01*
X344921Y277673D01*
X336559Y271358D01*
X326481Y268490D01*
X316047Y269457D01*
G37*
%LPD*%
G36*
X250574Y280162D02*
X250574Y280162D01*
X250608Y280170D01*
X250656Y280171D01*
X253412Y280709D01*
X253444Y280723D01*
X253491Y280732D01*
X256120Y281716D01*
X256150Y281735D01*
X256195Y281751D01*
X258627Y283155D01*
X258653Y283178D01*
X258694Y283202D01*
X260862Y284987D01*
X260883Y285014D01*
X260921Y285045D01*
X262765Y287162D01*
X262782Y287192D01*
X262814Y287228D01*
X264284Y289620D01*
X264296Y289653D01*
X264321Y289694D01*
X265378Y292295D01*
X265384Y292329D01*
X265402Y292374D01*
X266016Y295114D01*
X266017Y295148D01*
X266028Y295195D01*
X266182Y297999D01*
X266177Y298033D01*
X266180Y298081D01*
X265871Y300872D01*
X265860Y300905D01*
X265855Y300953D01*
X265091Y303654D01*
X265075Y303685D01*
X265062Y303732D01*
X263864Y306271D01*
X263847Y306294D01*
X263836Y306322D01*
X263788Y306373D01*
X263745Y306430D01*
X263720Y306445D01*
X263700Y306466D01*
X263635Y306495D01*
X263573Y306530D01*
X263544Y306534D01*
X263518Y306546D01*
X263447Y306547D01*
X263376Y306556D01*
X263348Y306548D01*
X263319Y306548D01*
X263226Y306513D01*
X263185Y306502D01*
X263176Y306495D01*
X263163Y306490D01*
X233718Y289490D01*
X233696Y289471D01*
X233670Y289458D01*
X233637Y289422D01*
X233632Y289418D01*
X233626Y289410D01*
X233622Y289406D01*
X233569Y289358D01*
X233557Y289332D01*
X233537Y289310D01*
X233514Y289243D01*
X233483Y289179D01*
X233482Y289150D01*
X233473Y289122D01*
X233478Y289051D01*
X233475Y288980D01*
X233485Y288953D01*
X233487Y288924D01*
X233529Y288834D01*
X233544Y288794D01*
X233552Y288786D01*
X233557Y288773D01*
X235157Y286466D01*
X235182Y286442D01*
X235210Y286402D01*
X237168Y284390D01*
X237196Y284370D01*
X237230Y284336D01*
X239492Y282673D01*
X239524Y282658D01*
X239562Y282630D01*
X242067Y281362D01*
X242101Y281353D01*
X242144Y281331D01*
X244824Y280493D01*
X244858Y280489D01*
X244904Y280475D01*
X247685Y280089D01*
X247720Y280091D01*
X247767Y280085D01*
X250574Y280162D01*
G37*
G36*
X399654Y280109D02*
X399654Y280109D01*
X399702Y280107D01*
X402480Y280494D01*
X402513Y280506D01*
X402560Y280512D01*
X405237Y281351D01*
X405267Y281368D01*
X405313Y281382D01*
X407814Y282650D01*
X407842Y282672D01*
X407885Y282694D01*
X410143Y284356D01*
X410167Y284382D01*
X410205Y284410D01*
X410533Y284748D01*
X410534Y284748D01*
X411018Y285247D01*
X411019Y285247D01*
X411503Y285746D01*
X411504Y285746D01*
X411989Y286246D01*
X412160Y286422D01*
X412178Y286451D01*
X412212Y286485D01*
X413809Y288791D01*
X413820Y288818D01*
X413839Y288840D01*
X413859Y288908D01*
X413887Y288974D01*
X413887Y289003D01*
X413895Y289031D01*
X413887Y289102D01*
X413888Y289173D01*
X413876Y289200D01*
X413873Y289229D01*
X413838Y289291D01*
X413811Y289356D01*
X413790Y289376D01*
X413776Y289402D01*
X413714Y289453D01*
X413709Y289459D01*
X413699Y289465D01*
X413669Y289495D01*
X413658Y289499D01*
X413647Y289508D01*
X384225Y306469D01*
X384197Y306478D01*
X384173Y306495D01*
X384104Y306509D01*
X384036Y306532D01*
X384007Y306530D01*
X383979Y306536D01*
X383909Y306522D01*
X383838Y306516D01*
X383812Y306503D01*
X383784Y306497D01*
X383725Y306457D01*
X383662Y306425D01*
X383643Y306402D01*
X383619Y306386D01*
X383562Y306304D01*
X383535Y306271D01*
X383532Y306261D01*
X383524Y306249D01*
X382329Y303712D01*
X382321Y303678D01*
X382300Y303635D01*
X381539Y300936D01*
X381536Y300901D01*
X381523Y300855D01*
X381216Y298067D01*
X381219Y298033D01*
X381214Y297985D01*
X381370Y295185D01*
X381379Y295151D01*
X381382Y295103D01*
X381997Y292367D01*
X382011Y292335D01*
X382021Y292288D01*
X383078Y289690D01*
X383098Y289661D01*
X383116Y289617D01*
X384586Y287229D01*
X384610Y287203D01*
X384635Y287162D01*
X386478Y285049D01*
X386506Y285027D01*
X386537Y284991D01*
X388703Y283210D01*
X388734Y283193D01*
X388771Y283163D01*
X391201Y281762D01*
X391234Y281751D01*
X391275Y281727D01*
X393902Y280745D01*
X393937Y280740D01*
X393982Y280723D01*
X396735Y280187D01*
X396769Y280187D01*
X396817Y280178D01*
X399620Y280103D01*
X399654Y280109D01*
G37*
D10*
X323674Y332882D03*
D11*
X458437Y258420D03*
X188988Y258410D03*
D10*
X395241Y291525D03*
X252140Y291582D03*
M02*
