G04 EAGLE Gerber X2 export*
G04 #@! %TF.Part,Single*
G04 #@! %TF.FileFunction,Profile,NP*
G04 #@! %TF.FilePolarity,Positive*
G04 #@! %TF.GenerationSoftware,Autodesk,EAGLE,8.7.1*
G04 #@! %TF.CreationDate,2018-11-26T06:11:13Z*
G75*
%MOMM*%
%FSLAX34Y34*%
%LPD*%
%AMOC8*
5,1,8,0,0,1.08239X$1,22.5*%
G01*
%ADD10C,0.254000*%


D10*
X173692Y254258D02*
X473686Y254254D01*
X323688Y340858D01*
X173692Y254258D01*
X334842Y297560D02*
X334771Y296659D01*
X334630Y295767D01*
X334419Y294888D01*
X334140Y294029D01*
X333794Y293194D01*
X333383Y292389D01*
X332911Y291618D01*
X332380Y290887D01*
X331793Y290200D01*
X331154Y289561D01*
X330467Y288974D01*
X329736Y288443D01*
X328965Y287971D01*
X328160Y287560D01*
X327325Y287214D01*
X326466Y286935D01*
X325587Y286724D01*
X324695Y286583D01*
X323794Y286512D01*
X322890Y286512D01*
X321989Y286583D01*
X321097Y286724D01*
X320218Y286935D01*
X319359Y287214D01*
X318524Y287560D01*
X317719Y287971D01*
X316948Y288443D01*
X316217Y288974D01*
X315530Y289561D01*
X314891Y290200D01*
X314304Y290887D01*
X313773Y291618D01*
X313301Y292389D01*
X312890Y293194D01*
X312544Y294029D01*
X312265Y294888D01*
X312054Y295767D01*
X311913Y296659D01*
X311842Y297560D01*
X311842Y298464D01*
X311913Y299365D01*
X312054Y300257D01*
X312265Y301136D01*
X312544Y301995D01*
X312890Y302830D01*
X313301Y303635D01*
X313773Y304406D01*
X314304Y305137D01*
X314891Y305824D01*
X315530Y306463D01*
X316217Y307050D01*
X316948Y307581D01*
X317719Y308053D01*
X318524Y308464D01*
X319359Y308810D01*
X320218Y309089D01*
X321097Y309300D01*
X321989Y309441D01*
X322890Y309512D01*
X323794Y309512D01*
X324695Y309441D01*
X325587Y309300D01*
X326466Y309089D01*
X327325Y308810D01*
X328160Y308464D01*
X328965Y308053D01*
X329736Y307581D01*
X330467Y307050D01*
X331154Y306463D01*
X331793Y305824D01*
X332380Y305137D01*
X332911Y304406D01*
X333383Y303635D01*
X333794Y302830D01*
X334140Y301995D01*
X334419Y301136D01*
X334630Y300257D01*
X334771Y299365D01*
X334842Y298464D01*
X334842Y297560D01*
X334842Y297560D02*
X334771Y296659D01*
X334630Y295767D01*
X334419Y294888D01*
X334140Y294029D01*
X333794Y293194D01*
X333383Y292389D01*
X332911Y291618D01*
X332380Y290887D01*
X331793Y290200D01*
X331154Y289561D01*
X330467Y288974D01*
X329736Y288443D01*
X328965Y287971D01*
X328160Y287560D01*
X327325Y287214D01*
X326466Y286935D01*
X325587Y286724D01*
X324695Y286583D01*
X323794Y286512D01*
X322890Y286512D01*
X321989Y286583D01*
X321097Y286724D01*
X320218Y286935D01*
X319359Y287214D01*
X318524Y287560D01*
X317719Y287971D01*
X316948Y288443D01*
X316217Y288974D01*
X315530Y289561D01*
X314891Y290200D01*
X314304Y290887D01*
X313773Y291618D01*
X313301Y292389D01*
X312890Y293194D01*
X312544Y294029D01*
X312265Y294888D01*
X312054Y295767D01*
X311913Y296659D01*
X311842Y297560D01*
X311842Y298464D01*
X311913Y299365D01*
X312054Y300257D01*
X312265Y301136D01*
X312544Y301995D01*
X312890Y302830D01*
X313301Y303635D01*
X313773Y304406D01*
X314304Y305137D01*
X314891Y305824D01*
X315530Y306463D01*
X316217Y307050D01*
X316948Y307581D01*
X317719Y308053D01*
X318524Y308464D01*
X319359Y308810D01*
X320218Y309089D01*
X321097Y309300D01*
X321989Y309441D01*
X322890Y309512D01*
X323794Y309512D01*
X324695Y309441D01*
X325587Y309300D01*
X326466Y309089D01*
X327325Y308810D01*
X328160Y308464D01*
X328965Y308053D01*
X329736Y307581D01*
X330467Y307050D01*
X331154Y306463D01*
X331793Y305824D01*
X332380Y305137D01*
X332911Y304406D01*
X333383Y303635D01*
X333794Y302830D01*
X334140Y301995D01*
X334419Y301136D01*
X334630Y300257D01*
X334771Y299365D01*
X334842Y298464D01*
X334842Y297560D01*
M02*
