G04 EAGLE Gerber X2 export*
G04 #@! %TF.Part,Single*
G04 #@! %TF.FileFunction,Legend,Bot,1*
G04 #@! %TF.FilePolarity,Positive*
G04 #@! %TF.GenerationSoftware,Autodesk,EAGLE,8.7.1*
G04 #@! %TF.CreationDate,2018-11-26T06:11:13Z*
G75*
%MOMM*%
%FSLAX34Y34*%
%LPD*%
%AMOC8*
5,1,8,0,0,1.08239X$1,22.5*%
G01*
%ADD10C,0.076200*%
%ADD11C,0.254000*%
%ADD12C,0.203200*%


D10*
X441527Y263068D02*
X439961Y263068D01*
X439961Y257847D01*
X443094Y257847D01*
X443183Y257849D01*
X443271Y257855D01*
X443359Y257864D01*
X443447Y257877D01*
X443534Y257894D01*
X443620Y257914D01*
X443705Y257939D01*
X443790Y257966D01*
X443873Y257998D01*
X443954Y258032D01*
X444034Y258071D01*
X444112Y258112D01*
X444189Y258157D01*
X444263Y258205D01*
X444336Y258256D01*
X444406Y258310D01*
X444473Y258368D01*
X444539Y258428D01*
X444601Y258490D01*
X444661Y258556D01*
X444719Y258623D01*
X444773Y258693D01*
X444824Y258766D01*
X444872Y258840D01*
X444917Y258917D01*
X444958Y258995D01*
X444997Y259075D01*
X445031Y259156D01*
X445063Y259239D01*
X445090Y259324D01*
X445115Y259409D01*
X445135Y259495D01*
X445152Y259582D01*
X445165Y259670D01*
X445174Y259758D01*
X445180Y259846D01*
X445182Y259935D01*
X445182Y265157D01*
X445180Y265246D01*
X445174Y265334D01*
X445165Y265422D01*
X445152Y265510D01*
X445135Y265597D01*
X445115Y265683D01*
X445090Y265768D01*
X445063Y265853D01*
X445031Y265936D01*
X444997Y266017D01*
X444958Y266097D01*
X444917Y266175D01*
X444872Y266252D01*
X444824Y266326D01*
X444773Y266399D01*
X444719Y266469D01*
X444661Y266536D01*
X444601Y266602D01*
X444539Y266664D01*
X444473Y266724D01*
X444406Y266782D01*
X444336Y266836D01*
X444263Y266887D01*
X444189Y266935D01*
X444112Y266980D01*
X444034Y267021D01*
X443954Y267060D01*
X443873Y267094D01*
X443790Y267126D01*
X443705Y267153D01*
X443620Y267178D01*
X443534Y267198D01*
X443447Y267215D01*
X443359Y267228D01*
X443271Y267237D01*
X443183Y267243D01*
X443094Y267245D01*
X439961Y267245D01*
X435429Y267245D02*
X435429Y257847D01*
X430207Y257847D02*
X435429Y267245D01*
X430207Y267245D02*
X430207Y257847D01*
X425675Y257847D02*
X425675Y267245D01*
X423064Y267245D01*
X422964Y267243D01*
X422864Y267237D01*
X422765Y267228D01*
X422665Y267214D01*
X422567Y267197D01*
X422469Y267176D01*
X422372Y267152D01*
X422276Y267123D01*
X422181Y267091D01*
X422088Y267056D01*
X421996Y267017D01*
X421905Y266974D01*
X421817Y266928D01*
X421730Y266878D01*
X421645Y266826D01*
X421562Y266770D01*
X421481Y266711D01*
X421403Y266648D01*
X421327Y266583D01*
X421253Y266515D01*
X421183Y266445D01*
X421115Y266371D01*
X421050Y266295D01*
X420987Y266217D01*
X420928Y266136D01*
X420872Y266053D01*
X420820Y265968D01*
X420770Y265881D01*
X420724Y265793D01*
X420681Y265702D01*
X420642Y265610D01*
X420607Y265517D01*
X420575Y265422D01*
X420546Y265326D01*
X420522Y265229D01*
X420501Y265131D01*
X420484Y265033D01*
X420470Y264933D01*
X420461Y264834D01*
X420455Y264734D01*
X420453Y264634D01*
X420454Y264634D02*
X420454Y260458D01*
X420453Y260458D02*
X420455Y260358D01*
X420461Y260258D01*
X420470Y260159D01*
X420484Y260059D01*
X420501Y259961D01*
X420522Y259863D01*
X420546Y259766D01*
X420575Y259670D01*
X420607Y259575D01*
X420642Y259482D01*
X420681Y259390D01*
X420724Y259299D01*
X420770Y259211D01*
X420820Y259124D01*
X420872Y259039D01*
X420928Y258956D01*
X420987Y258875D01*
X421050Y258797D01*
X421115Y258721D01*
X421183Y258647D01*
X421253Y258577D01*
X421327Y258509D01*
X421403Y258444D01*
X421481Y258381D01*
X421562Y258322D01*
X421645Y258266D01*
X421730Y258214D01*
X421817Y258164D01*
X421905Y258118D01*
X421996Y258075D01*
X422088Y258036D01*
X422181Y258001D01*
X422276Y257969D01*
X422372Y257940D01*
X422469Y257916D01*
X422567Y257895D01*
X422665Y257878D01*
X422765Y257864D01*
X422864Y257855D01*
X422964Y257849D01*
X423064Y257847D01*
X425675Y257847D01*
X222579Y263244D02*
X221013Y263244D01*
X221013Y258023D01*
X224146Y258023D01*
X224235Y258025D01*
X224323Y258031D01*
X224411Y258040D01*
X224499Y258053D01*
X224586Y258070D01*
X224672Y258090D01*
X224757Y258115D01*
X224842Y258142D01*
X224925Y258174D01*
X225006Y258208D01*
X225086Y258247D01*
X225164Y258288D01*
X225241Y258333D01*
X225315Y258381D01*
X225388Y258432D01*
X225458Y258486D01*
X225525Y258544D01*
X225591Y258604D01*
X225653Y258666D01*
X225713Y258732D01*
X225771Y258799D01*
X225825Y258869D01*
X225876Y258942D01*
X225924Y259016D01*
X225969Y259093D01*
X226010Y259171D01*
X226049Y259251D01*
X226083Y259332D01*
X226115Y259415D01*
X226142Y259500D01*
X226167Y259585D01*
X226187Y259671D01*
X226204Y259758D01*
X226217Y259846D01*
X226226Y259934D01*
X226232Y260022D01*
X226234Y260111D01*
X226234Y265333D01*
X226232Y265422D01*
X226226Y265510D01*
X226217Y265598D01*
X226204Y265686D01*
X226187Y265773D01*
X226167Y265859D01*
X226142Y265944D01*
X226115Y266029D01*
X226083Y266112D01*
X226049Y266193D01*
X226010Y266273D01*
X225969Y266351D01*
X225924Y266428D01*
X225876Y266502D01*
X225825Y266575D01*
X225771Y266645D01*
X225713Y266712D01*
X225653Y266778D01*
X225591Y266840D01*
X225525Y266900D01*
X225458Y266958D01*
X225388Y267012D01*
X225315Y267063D01*
X225241Y267111D01*
X225164Y267156D01*
X225086Y267197D01*
X225006Y267236D01*
X224925Y267270D01*
X224842Y267302D01*
X224757Y267329D01*
X224672Y267354D01*
X224586Y267374D01*
X224499Y267391D01*
X224411Y267404D01*
X224323Y267413D01*
X224235Y267419D01*
X224146Y267421D01*
X221013Y267421D01*
X216481Y267421D02*
X216481Y258023D01*
X211259Y258023D02*
X216481Y267421D01*
X211259Y267421D02*
X211259Y258023D01*
X206727Y258023D02*
X206727Y267421D01*
X204116Y267421D01*
X204016Y267419D01*
X203916Y267413D01*
X203817Y267404D01*
X203717Y267390D01*
X203619Y267373D01*
X203521Y267352D01*
X203424Y267328D01*
X203328Y267299D01*
X203233Y267267D01*
X203140Y267232D01*
X203048Y267193D01*
X202957Y267150D01*
X202869Y267104D01*
X202782Y267054D01*
X202697Y267002D01*
X202614Y266946D01*
X202533Y266887D01*
X202455Y266824D01*
X202379Y266759D01*
X202305Y266691D01*
X202235Y266621D01*
X202167Y266547D01*
X202102Y266471D01*
X202039Y266393D01*
X201980Y266312D01*
X201924Y266229D01*
X201872Y266144D01*
X201822Y266057D01*
X201776Y265969D01*
X201733Y265878D01*
X201694Y265786D01*
X201659Y265693D01*
X201627Y265598D01*
X201598Y265502D01*
X201574Y265405D01*
X201553Y265307D01*
X201536Y265209D01*
X201522Y265109D01*
X201513Y265010D01*
X201507Y264910D01*
X201505Y264810D01*
X201506Y264810D02*
X201506Y260634D01*
X201505Y260634D02*
X201507Y260534D01*
X201513Y260434D01*
X201522Y260335D01*
X201536Y260235D01*
X201553Y260137D01*
X201574Y260039D01*
X201598Y259942D01*
X201627Y259846D01*
X201659Y259751D01*
X201694Y259658D01*
X201733Y259566D01*
X201776Y259475D01*
X201822Y259387D01*
X201872Y259300D01*
X201924Y259215D01*
X201980Y259132D01*
X202039Y259051D01*
X202102Y258973D01*
X202167Y258897D01*
X202235Y258823D01*
X202305Y258753D01*
X202379Y258685D01*
X202455Y258620D01*
X202533Y258557D01*
X202614Y258498D01*
X202697Y258442D01*
X202782Y258390D01*
X202869Y258340D01*
X202957Y258294D01*
X203048Y258251D01*
X203140Y258212D01*
X203233Y258177D01*
X203328Y258145D01*
X203424Y258116D01*
X203521Y258092D01*
X203619Y258071D01*
X203717Y258054D01*
X203817Y258040D01*
X203916Y258031D01*
X204016Y258025D01*
X204116Y258023D01*
X206727Y258023D01*
D11*
X294842Y297942D02*
X294851Y298641D01*
X294876Y299340D01*
X294919Y300039D01*
X294979Y300735D01*
X295056Y301431D01*
X295150Y302124D01*
X295262Y302814D01*
X295390Y303502D01*
X295534Y304186D01*
X295696Y304867D01*
X295874Y305543D01*
X296069Y306215D01*
X296280Y306882D01*
X296508Y307543D01*
X296752Y308199D01*
X297011Y308848D01*
X297287Y309491D01*
X297578Y310127D01*
X297885Y310756D01*
X298207Y311377D01*
X298545Y311990D01*
X298897Y312594D01*
X299264Y313189D01*
X299645Y313776D01*
X300041Y314353D01*
X300451Y314919D01*
X300874Y315476D01*
X301311Y316022D01*
X301762Y316557D01*
X302225Y317081D01*
X302701Y317594D01*
X303189Y318095D01*
X303690Y318583D01*
X304203Y319059D01*
X304727Y319522D01*
X305262Y319973D01*
X305808Y320410D01*
X306365Y320833D01*
X306931Y321243D01*
X307508Y321639D01*
X308095Y322020D01*
X308690Y322387D01*
X309294Y322739D01*
X309907Y323077D01*
X310528Y323399D01*
X311157Y323706D01*
X311793Y323997D01*
X312436Y324273D01*
X313085Y324532D01*
X313741Y324776D01*
X314402Y325004D01*
X315069Y325215D01*
X315741Y325410D01*
X316417Y325588D01*
X317098Y325750D01*
X317782Y325894D01*
X318470Y326022D01*
X319160Y326134D01*
X319853Y326228D01*
X320549Y326305D01*
X321245Y326365D01*
X321944Y326408D01*
X322643Y326433D01*
X323342Y326442D01*
X324041Y326433D01*
X324740Y326408D01*
X325439Y326365D01*
X326135Y326305D01*
X326831Y326228D01*
X327524Y326134D01*
X328214Y326022D01*
X328902Y325894D01*
X329586Y325750D01*
X330267Y325588D01*
X330943Y325410D01*
X331615Y325215D01*
X332282Y325004D01*
X332943Y324776D01*
X333599Y324532D01*
X334248Y324273D01*
X334891Y323997D01*
X335527Y323706D01*
X336156Y323399D01*
X336777Y323077D01*
X337390Y322739D01*
X337994Y322387D01*
X338589Y322020D01*
X339176Y321639D01*
X339753Y321243D01*
X340319Y320833D01*
X340876Y320410D01*
X341422Y319973D01*
X341957Y319522D01*
X342481Y319059D01*
X342994Y318583D01*
X343495Y318095D01*
X343983Y317594D01*
X344459Y317081D01*
X344922Y316557D01*
X345373Y316022D01*
X345810Y315476D01*
X346233Y314919D01*
X346643Y314353D01*
X347039Y313776D01*
X347420Y313189D01*
X347787Y312594D01*
X348139Y311990D01*
X348477Y311377D01*
X348799Y310756D01*
X349106Y310127D01*
X349397Y309491D01*
X349673Y308848D01*
X349932Y308199D01*
X350176Y307543D01*
X350404Y306882D01*
X350615Y306215D01*
X350810Y305543D01*
X350988Y304867D01*
X351150Y304186D01*
X351294Y303502D01*
X351422Y302814D01*
X351534Y302124D01*
X351628Y301431D01*
X351705Y300735D01*
X351765Y300039D01*
X351808Y299340D01*
X351833Y298641D01*
X351842Y297942D01*
X351833Y297243D01*
X351808Y296544D01*
X351765Y295845D01*
X351705Y295149D01*
X351628Y294453D01*
X351534Y293760D01*
X351422Y293070D01*
X351294Y292382D01*
X351150Y291698D01*
X350988Y291017D01*
X350810Y290341D01*
X350615Y289669D01*
X350404Y289002D01*
X350176Y288341D01*
X349932Y287685D01*
X349673Y287036D01*
X349397Y286393D01*
X349106Y285757D01*
X348799Y285128D01*
X348477Y284507D01*
X348139Y283894D01*
X347787Y283290D01*
X347420Y282695D01*
X347039Y282108D01*
X346643Y281531D01*
X346233Y280965D01*
X345810Y280408D01*
X345373Y279862D01*
X344922Y279327D01*
X344459Y278803D01*
X343983Y278290D01*
X343495Y277789D01*
X342994Y277301D01*
X342481Y276825D01*
X341957Y276362D01*
X341422Y275911D01*
X340876Y275474D01*
X340319Y275051D01*
X339753Y274641D01*
X339176Y274245D01*
X338589Y273864D01*
X337994Y273497D01*
X337390Y273145D01*
X336777Y272807D01*
X336156Y272485D01*
X335527Y272178D01*
X334891Y271887D01*
X334248Y271611D01*
X333599Y271352D01*
X332943Y271108D01*
X332282Y270880D01*
X331615Y270669D01*
X330943Y270474D01*
X330267Y270296D01*
X329586Y270134D01*
X328902Y269990D01*
X328214Y269862D01*
X327524Y269750D01*
X326831Y269656D01*
X326135Y269579D01*
X325439Y269519D01*
X324740Y269476D01*
X324041Y269451D01*
X323342Y269442D01*
X322643Y269451D01*
X321944Y269476D01*
X321245Y269519D01*
X320549Y269579D01*
X319853Y269656D01*
X319160Y269750D01*
X318470Y269862D01*
X317782Y269990D01*
X317098Y270134D01*
X316417Y270296D01*
X315741Y270474D01*
X315069Y270669D01*
X314402Y270880D01*
X313741Y271108D01*
X313085Y271352D01*
X312436Y271611D01*
X311793Y271887D01*
X311157Y272178D01*
X310528Y272485D01*
X309907Y272807D01*
X309294Y273145D01*
X308690Y273497D01*
X308095Y273864D01*
X307508Y274245D01*
X306931Y274641D01*
X306365Y275051D01*
X305808Y275474D01*
X305262Y275911D01*
X304727Y276362D01*
X304203Y276825D01*
X303690Y277301D01*
X303189Y277789D01*
X302701Y278290D01*
X302225Y278803D01*
X301762Y279327D01*
X301311Y279862D01*
X300874Y280408D01*
X300451Y280965D01*
X300041Y281531D01*
X299645Y282108D01*
X299264Y282695D01*
X298897Y283290D01*
X298545Y283894D01*
X298207Y284507D01*
X297885Y285128D01*
X297578Y285757D01*
X297287Y286393D01*
X297011Y287036D01*
X296752Y287685D01*
X296508Y288341D01*
X296280Y289002D01*
X296069Y289669D01*
X295874Y290341D01*
X295696Y291017D01*
X295534Y291698D01*
X295390Y292382D01*
X295262Y293070D01*
X295150Y293760D01*
X295056Y294453D01*
X294979Y295149D01*
X294919Y295845D01*
X294876Y296544D01*
X294851Y297243D01*
X294842Y297942D01*
D12*
X315214Y289306D02*
X285750Y260604D01*
X268050Y260427D02*
X260350Y260350D01*
X278050Y260527D02*
X285750Y260604D01*
D10*
X397334Y264541D02*
X397334Y273939D01*
X394201Y268718D01*
X391068Y273939D01*
X391068Y264541D01*
X383882Y273940D02*
X383787Y273938D01*
X383693Y273932D01*
X383599Y273923D01*
X383505Y273910D01*
X383412Y273893D01*
X383320Y273872D01*
X383228Y273847D01*
X383138Y273819D01*
X383049Y273787D01*
X382961Y273752D01*
X382875Y273713D01*
X382790Y273671D01*
X382707Y273625D01*
X382626Y273576D01*
X382547Y273524D01*
X382470Y273469D01*
X382396Y273410D01*
X382324Y273349D01*
X382254Y273285D01*
X382187Y273218D01*
X382123Y273148D01*
X382062Y273076D01*
X382003Y273002D01*
X381948Y272925D01*
X381896Y272846D01*
X381847Y272765D01*
X381801Y272682D01*
X381759Y272597D01*
X381720Y272511D01*
X381685Y272423D01*
X381653Y272334D01*
X381625Y272244D01*
X381600Y272152D01*
X381579Y272060D01*
X381562Y271967D01*
X381549Y271873D01*
X381540Y271779D01*
X381534Y271685D01*
X381532Y271590D01*
X383882Y273939D02*
X383990Y273937D01*
X384099Y273931D01*
X384207Y273921D01*
X384314Y273908D01*
X384421Y273890D01*
X384528Y273869D01*
X384633Y273844D01*
X384738Y273815D01*
X384841Y273783D01*
X384943Y273746D01*
X385044Y273706D01*
X385143Y273663D01*
X385241Y273616D01*
X385337Y273565D01*
X385431Y273511D01*
X385523Y273454D01*
X385613Y273393D01*
X385701Y273329D01*
X385786Y273263D01*
X385869Y273193D01*
X385949Y273120D01*
X386027Y273044D01*
X386102Y272966D01*
X386174Y272885D01*
X386243Y272801D01*
X386309Y272715D01*
X386372Y272627D01*
X386431Y272536D01*
X386488Y272444D01*
X386541Y272349D01*
X386590Y272252D01*
X386636Y272154D01*
X386679Y272055D01*
X386718Y271953D01*
X386753Y271851D01*
X382315Y269762D02*
X382246Y269831D01*
X382180Y269902D01*
X382116Y269975D01*
X382055Y270051D01*
X381997Y270130D01*
X381943Y270210D01*
X381891Y270293D01*
X381843Y270377D01*
X381797Y270463D01*
X381756Y270551D01*
X381717Y270641D01*
X381682Y270732D01*
X381651Y270824D01*
X381623Y270917D01*
X381599Y271011D01*
X381579Y271106D01*
X381562Y271202D01*
X381549Y271299D01*
X381540Y271396D01*
X381534Y271493D01*
X381532Y271590D01*
X382315Y269762D02*
X386753Y264541D01*
X381532Y264541D01*
X378003Y264541D02*
X378003Y265063D01*
X377481Y265063D01*
X377481Y264541D01*
X378003Y264541D01*
X373952Y264541D02*
X370819Y264541D01*
X370730Y264543D01*
X370642Y264549D01*
X370554Y264558D01*
X370466Y264571D01*
X370379Y264588D01*
X370293Y264608D01*
X370208Y264633D01*
X370123Y264660D01*
X370040Y264692D01*
X369959Y264726D01*
X369879Y264765D01*
X369801Y264806D01*
X369724Y264851D01*
X369650Y264899D01*
X369577Y264950D01*
X369507Y265004D01*
X369440Y265062D01*
X369374Y265122D01*
X369312Y265184D01*
X369252Y265250D01*
X369194Y265317D01*
X369140Y265387D01*
X369089Y265460D01*
X369041Y265534D01*
X368996Y265611D01*
X368955Y265689D01*
X368916Y265769D01*
X368882Y265850D01*
X368850Y265933D01*
X368823Y266018D01*
X368798Y266103D01*
X368778Y266189D01*
X368761Y266276D01*
X368748Y266364D01*
X368739Y266452D01*
X368733Y266540D01*
X368731Y266629D01*
X368730Y266629D02*
X368730Y267674D01*
X368731Y267674D02*
X368733Y267763D01*
X368739Y267851D01*
X368748Y267939D01*
X368761Y268027D01*
X368778Y268114D01*
X368798Y268200D01*
X368823Y268285D01*
X368850Y268370D01*
X368882Y268453D01*
X368916Y268534D01*
X368955Y268614D01*
X368996Y268692D01*
X369041Y268769D01*
X369089Y268843D01*
X369140Y268916D01*
X369194Y268986D01*
X369252Y269053D01*
X369312Y269119D01*
X369374Y269181D01*
X369440Y269241D01*
X369507Y269299D01*
X369577Y269353D01*
X369650Y269404D01*
X369724Y269452D01*
X369801Y269497D01*
X369879Y269538D01*
X369959Y269577D01*
X370040Y269611D01*
X370123Y269643D01*
X370208Y269670D01*
X370293Y269695D01*
X370379Y269715D01*
X370466Y269732D01*
X370554Y269745D01*
X370642Y269754D01*
X370730Y269760D01*
X370819Y269762D01*
X373952Y269762D01*
X373952Y273939D01*
X368730Y273939D01*
X276633Y273431D02*
X276633Y264033D01*
X273500Y268210D02*
X276633Y273431D01*
X273500Y268210D02*
X270367Y273431D01*
X270367Y264033D01*
X263181Y273432D02*
X263086Y273430D01*
X262992Y273424D01*
X262898Y273415D01*
X262804Y273402D01*
X262711Y273385D01*
X262619Y273364D01*
X262527Y273339D01*
X262437Y273311D01*
X262348Y273279D01*
X262260Y273244D01*
X262174Y273205D01*
X262089Y273163D01*
X262006Y273117D01*
X261925Y273068D01*
X261846Y273016D01*
X261769Y272961D01*
X261695Y272902D01*
X261623Y272841D01*
X261553Y272777D01*
X261486Y272710D01*
X261422Y272640D01*
X261361Y272568D01*
X261302Y272494D01*
X261247Y272417D01*
X261195Y272338D01*
X261146Y272257D01*
X261100Y272174D01*
X261058Y272089D01*
X261019Y272003D01*
X260984Y271915D01*
X260952Y271826D01*
X260924Y271736D01*
X260899Y271644D01*
X260878Y271552D01*
X260861Y271459D01*
X260848Y271365D01*
X260839Y271271D01*
X260833Y271177D01*
X260831Y271082D01*
X263181Y273431D02*
X263289Y273429D01*
X263398Y273423D01*
X263506Y273413D01*
X263613Y273400D01*
X263720Y273382D01*
X263827Y273361D01*
X263932Y273336D01*
X264037Y273307D01*
X264140Y273275D01*
X264242Y273238D01*
X264343Y273198D01*
X264442Y273155D01*
X264540Y273108D01*
X264636Y273057D01*
X264730Y273003D01*
X264822Y272946D01*
X264912Y272885D01*
X265000Y272821D01*
X265085Y272755D01*
X265168Y272685D01*
X265248Y272612D01*
X265326Y272536D01*
X265401Y272458D01*
X265473Y272377D01*
X265542Y272293D01*
X265608Y272207D01*
X265671Y272119D01*
X265730Y272028D01*
X265787Y271936D01*
X265840Y271841D01*
X265889Y271744D01*
X265935Y271646D01*
X265978Y271547D01*
X266017Y271445D01*
X266052Y271343D01*
X261614Y269254D02*
X261545Y269323D01*
X261479Y269394D01*
X261415Y269467D01*
X261354Y269543D01*
X261296Y269622D01*
X261242Y269702D01*
X261190Y269785D01*
X261142Y269869D01*
X261096Y269955D01*
X261055Y270043D01*
X261016Y270133D01*
X260981Y270224D01*
X260950Y270316D01*
X260922Y270409D01*
X260898Y270503D01*
X260878Y270598D01*
X260861Y270694D01*
X260848Y270791D01*
X260839Y270888D01*
X260833Y270985D01*
X260831Y271082D01*
X261614Y269254D02*
X266052Y264033D01*
X260831Y264033D01*
D12*
X363220Y260604D02*
X375492Y260604D01*
X385492Y260604D02*
X397764Y260604D01*
X363220Y260604D02*
X344170Y277114D01*
M02*
